<?xml version="1.0" encoding="utf-8"?>
<!-- Generator: Adobe Illustrator 18.0.0, SVG Export Plug-In . SVG Version: 6.00 Build 0)  -->
<!DOCTYPE svg PUBLIC "-//W3C//DTD SVG 1.1//EN" "http://www.w3.org/Graphics/SVG/1.1/DTD/svg11.dtd">
<svg version="1.1" id="Layer_1" xmlns="http://www.w3.org/2000/svg" xmlns:xlink="http://www.w3.org/1999/xlink" x="0px" y="0px"
	 viewBox="0 0 1024 768" enable-background="new 0 0 1024 768" xml:space="preserve">
<linearGradient id="SVGID_1_" gradientUnits="userSpaceOnUse" x1="64" y1="-64" x2="960" y2="832">
	<stop  offset="0" style="stop-color:#414042"/>
	<stop  offset="0.3842" style="stop-color:#000000"/>
	<stop  offset="0.6404" style="stop-color:#414042"/>
	<stop  offset="0.8177" style="stop-color:#000000"/>
</linearGradient>
<rect fill="url(#SVGID_1_)" width="1024" height="768"/>
<g opacity="0.2">
	<polygon fill="#EC1622" points="676.1,184.7 298.8,367.8 640.2,601.6 	"/>
	<path fill="#F36662" d="M32.8,269.9C-12,324.5-44.7,379.6-63,432.1l95.8-85.7V269.9z"/>
	<polygon fill="#F36662" points="32.8,346.4 70.5,710.3 298.8,367.8 	"/>
	<polygon fill="#CE2867" points="880.8,450.5 880.8,450.5 880.8,450.5 	"/>
	<polygon fill="#EC1622" points="1006.8,235.2 823.5,-38.1 676.1,184.7 980.7,263.9 1035.6,278.2 	"/>
	<polygon fill="none" points="68.7,713.1 70.5,710.3 68.5,710.5 	"/>
	<polygon fill="none" points="-69.2,589.6 -69.2,589.6 -69.2,589.6 32.8,346.4 	"/>
	<path fill="#990E16" d="M367.8,709.6c-92.8,20.2-178.7,24.3-250,11.9l702.1,166.6L367.8,709.6L367.8,709.6z"/>
	<path fill="#990E16" d="M32.8,346.4L-69.2,589.6c2.9,8.1,6.4,16,10.6,23.6c24.8,45.8,69.1,77.9,127,96.4c0.7,0.2,1.4,0.4,2.2,0.7
		L32.8,346.4z"/>
	<path fill="#930F17" d="M32.8,346.4L-63,432.1c-19.9,57-22.9,110.9-6.2,157.5l0,0L32.8,346.4z"/>
	<path fill="#990E16" d="M880.8,450.5c-19.3,16.6-39.6,32.9-60.9,48.8c-45.8,34.1-96.2,66.4-150.4,95.8c-8.4,4.5-16.8,8.9-25.2,13.2
		l175.5,279.9L880.8,450.5L880.8,450.5z"/>
	<path fill="#3A3839" d="M117.8,721.5l-47.3-11.2C85.4,715,101.3,718.7,117.8,721.5z"/>
	<path fill="#930F17" d="M1102.9,61.9l-4.2,11.4L823.5-38.1l183.3,273.4l28.8,42.9l0,0.1c9.9-15.2,18.8-30.3,26.6-45.3
		c17.7-33.8,30-67,36.6-98.8c0,0,0,0,0-0.1C1103.9,109,1105.3,84.8,1102.9,61.9z"/>
	<path fill="#990E16" d="M365.8,699.8l-67.1-332L70.5,710.3l47.3,11.2c71.3,12.3,157.2,8.3,250-11.9L365.8,699.8z"/>
	<path fill="#930F17" d="M848.8,408.9L676.1,184.7l-35.9,416.9l4.2,6.6c8.4-4.3,16.8-8.7,25.2-13.2c54.2-29.4,104.6-61.6,150.4-95.8
		c21.3-15.9,41.7-32.2,60.9-48.8h0L848.8,408.9z"/>
	<path fill="#EC1622" d="M1035.6,278.2c-37.9,58.1-90.3,116.8-154.7,172.2l-60.9,437.7l169-457l49.9-135l23.4-63.2
		C1054.3,248,1045.5,263.1,1035.6,278.2z"/>
	<path fill="#990E16" d="M1035.6,278.2l-54.8-14.3l-304.6-79.2l172.7,224.2l32,41.6C945.2,395,997.7,336.3,1035.6,278.2
		L1035.6,278.2z"/>
	<path fill="#931649" d="M367.8,709.6L367.8,709.6L367.8,709.6C367.8,709.6,367.8,709.6,367.8,709.6z"/>
	<path fill="#F36662" d="M644.4,608.3c-3.9,2-7.7,3.9-11.6,5.9c-85.2,42.7-170.5,73.5-251,92.3c-4.7,1.1-9.3,2.1-14,3.1l0,0.1
		l452.1,178.5L644.4,608.3z"/>
	<path fill="#930F17" d="M640.2,601.6L298.8,367.8l67.1,332l2,9.8c0,0,0,0,0,0c4.6-1,9.3-2,14-3.1c80.5-18.8,165.7-49.6,251-92.3
		c3.9-1.9,7.7-3.9,11.6-5.9L640.2,601.6z"/>
	<path fill="#990E16" d="M1082.6-4.9c-16.7-30.8-42.1-55.3-74.5-73.7c-5.1-2.9-10.3-5.6-15.7-8.2L823.5-38.1l275.3,111.4l4.2-11.4
		C1100.4,38.2,1093.8,15.8,1082.6-4.9z"/>
	<path fill="#EC1622" d="M776.2-67.1c-12.3-24.1-44.4-36.1-89.4-36.9c-80.4-1.5-202.3,32.7-328,97.1
		C214.6,66.8,105.5,159.8,71.6,230.6c-12.2,25.5-14.7,48.1-5.6,65.9c34.4,67.2,221.3,40.3,417.4-60.1S810.6,0.1,776.2-67.1z"/>
	<path fill="#FFFFFF" d="M780.4-116.4L780.4-116.4l-1.3-2.4l-47.7,7.5c-11.4,1.5-22.9,3.4-34.6,5.5l-0.5,0.1l0.2,0
		c-3.2,0.6-6.4,1.2-9.6,1.8c45,0.8,77,12.8,89.4,36.9C810.6,0.1,679.5,136,483.4,236.4S100.4,363.7,66,296.5
		c-9.1-17.8-6.6-40.4,5.6-65.9c-0.4,0.4-0.7,0.8-1.1,1.1l0-0.1l-37.8,38.3l-6.3,7.8v3.4l0.1,1.4l6.2,63.9l266,21.4l377.4-183.1
		L823.5-38.1L780.4-116.4z"/>
</g>
<polygon fill="none" points="379.5,490.3 379.5,490.3 390.7,620.5 "/>
<g>
	<g>
		<polygon fill="#EC1622" points="395.1,157.9 320.3,194.2 388,240.6 		"/>
		<path fill="#F36662" d="M267.5,174.8c-8.9,10.8-15.4,21.8-19,32.2l19-17V174.8z"/>
		<polygon fill="#F36662" points="267.5,190 275,262.2 320.3,194.2 		"/>
		<path fill="#F36662" d="M457.9,104.1c-11.1-5.3-25.7-7.4-42.3-6.4l8.8,16L457.9,104.1z"/>
		<polygon fill="#CE2867" points="435.8,210.6 435.8,210.6 435.8,210.6 		"/>
		<polygon fill="#CE2867" points="479,147.9 479,147.9 479,147.9 		"/>
		<polygon fill="#EC1622" points="460.7,167.9 424.4,113.7 395.1,157.9 455.6,173.6 466.4,176.4 		"/>
		<polygon fill="none" points="274.7,262.7 275,262.2 274.6,262.2 		"/>
		<polygon fill="none" points="247.3,238.2 247.3,238.2 247.3,238.2 267.5,190 		"/>
		<path fill="#990E16" d="M334,262c-18.4,4-35.4,4.8-49.6,2.4l139.3,33L334,262L334,262z"/>
		<path fill="#990E16" d="M267.5,190l-20.2,48.2c0.6,1.6,1.3,3.2,2.1,4.7c4.9,9.1,13.7,15.4,25.2,19.1c0.1,0,0.3,0.1,0.4,0.1
			L267.5,190z"/>
		<path fill="#930F17" d="M267.5,190l-19,17c-4,11.3-4.6,22-1.2,31.2l0,0L267.5,190z"/>
		<path fill="#990E16" d="M435.8,210.6c-3.8,3.3-7.9,6.5-12.1,9.7c-9.1,6.8-19.1,13.2-29.8,19c-1.7,0.9-3.3,1.8-5,2.6l34.8,55.5
			L435.8,210.6L435.8,210.6z"/>
		<path fill="#3A3839" d="M284.4,264.4l-9.4-2.2C278,263.1,281.1,263.8,284.4,264.4z"/>
		<path fill="#930F17" d="M479.8,133.5l-0.8,2.3l-54.6-22.1l36.4,54.2l5.7,8.5l0,0c2-3,3.7-6,5.3-9c3.5-6.7,6-13.3,7.3-19.6
			c0,0,0,0,0,0C480,142.9,480.3,138.1,479.8,133.5z"/>
		<path fill="#990E16" d="M333.6,260.1l-13.3-65.9L275,262.2l9.4,2.2c14.1,2.4,31.2,1.6,49.6-2.4L333.6,260.1z"/>
		<path fill="#930F17" d="M429.4,202.4l-34.3-44.5l-7.1,82.7l0.8,1.3c1.7-0.9,3.3-1.7,5-2.6c10.8-5.8,20.7-12.2,29.8-19
			c4.2-3.2,8.3-6.4,12.1-9.7h0L429.4,202.4z"/>
		<path fill="#EC1622" d="M466.4,176.5c-7.5,11.5-17.9,23.2-30.7,34.2l-12.1,86.8l33.5-90.6l9.9-26.8l4.6-12.5
			C470.2,170.5,468.4,173.4,466.4,176.5z"/>
		<path fill="#990E16" d="M466.4,176.4l-10.9-2.8l-60.4-15.7l34.3,44.5l6.3,8.2C448.5,199.6,458.9,188,466.4,176.4L466.4,176.4z"/>
		<polygon fill="#931649" points="334,262 334,262 334,262 		"/>
		<path fill="#F36662" d="M388.8,241.9c-0.8,0.4-1.5,0.8-2.3,1.2c-16.9,8.5-33.8,14.6-49.8,18.3c-0.9,0.2-1.8,0.4-2.8,0.6l0,0
			l89.7,35.4L388.8,241.9z"/>
		<path fill="#930F17" d="M388,240.6l-67.7-46.4l13.3,65.9l0.4,1.9c0,0,0,0,0,0c0.9-0.2,1.8-0.4,2.8-0.6c16-3.7,32.9-9.8,49.8-18.3
			c0.8-0.4,1.5-0.8,2.3-1.2L388,240.6z"/>
		<path fill="#990E16" d="M475.8,120.3c-3.3-6.1-8.4-11-14.8-14.6c-1-0.6-2-1.1-3.1-1.6l-33.5,9.6l54.6,22.1l0.8-2.3
			C479.3,128.8,478,124.4,475.8,120.3z"/>
		<path fill="#EC1622" d="M415,108c-2.4-4.8-8.8-7.2-17.7-7.3c-15.9-0.3-40.1,6.5-65.1,19.3c-28.6,14.6-50.2,33.1-57,47.1
			c-2.4,5.1-2.9,9.5-1.1,13.1c6.8,13.3,43.9,8,82.8-11.9S421.8,121.3,415,108z"/>
		<path fill="#FFFFFF" d="M415.8,98.2L415.8,98.2l-0.3-0.5l-9.5,1.5c-2.3,0.3-4.5,0.7-6.9,1.1l-0.1,0l0,0c-0.6,0.1-1.3,0.2-1.9,0.4
			c8.9,0.2,15.3,2.5,17.7,7.3c6.8,13.3-19.2,40.3-58.1,60.2s-76,25.3-82.8,11.9c-1.8-3.5-1.3-8,1.1-13.1c-0.1,0.1-0.1,0.1-0.2,0.2
			l0,0l-7.5,7.6l-1.3,1.6v0.7l0,0.3l1.2,12.7l52.8,4.2l74.9-36.3l29.2-44.2L415.8,98.2z"/>
	</g>
	<g>
		<path fill="#FFFFFF" d="M512.6,147c5.9-1,14.6-1.7,24.4-1.7c12,0,20.4,1.8,26.2,6.4c4.8,3.8,7.4,9.5,7.4,16.9
			c0,10.3-7.3,17.4-14.3,19.9v0.4c5.6,2.3,8.8,7.7,10.8,15.1c2.5,9.1,5,19.7,6.6,22.8h-18.7c-1.3-2.3-3.2-8.9-5.6-18.8
			c-2.2-10.1-5.6-12.8-13.1-13h-5.5v31.8h-18.1V147z M530.7,181.8h7.2c9.1,0,14.5-4.6,14.5-11.6c0-7.4-5-11.2-13.4-11.3
			c-4.4,0-7,0.4-8.3,0.6V181.8z"/>
		<path fill="#FFFFFF" d="M638.5,207.9c0,7.7,0.2,13.9,0.5,18.8h-15.8l-0.8-8.3h-0.4c-2.3,3.6-7.8,9.6-18.4,9.6
			c-11.9,0-20.6-7.4-20.6-25.6v-34.4h18.4v31.6c0,8.5,2.8,13.7,9.1,13.7c5,0,7.9-3.5,9.1-6.4c0.5-1.1,0.6-2.5,0.6-4v-34.9h18.4
			V207.9z"/>
		<path fill="#FFFFFF" d="M652.6,226.8c0.2-3.8,0.5-10.9,0.5-17.5v-67.7h18.2v33.5h0.2c3.5-5,9.6-8.3,17.8-8.3
			c14,0,24.4,11.6,24.2,29.6c0,21.1-13.4,31.7-26.9,31.7c-6.8,0-13.4-2.5-17.6-9.5h-0.2l-0.7,8.2H652.6z M671.3,201.8
			c0,1.2,0.1,2.3,0.4,3.2c1.2,4.9,5.4,8.6,10.7,8.6c7.8,0,12.6-6,12.6-16.6c0-9.1-4.1-16.3-12.6-16.3c-4.9,0-9.5,3.7-10.7,9
			c-0.2,1.1-0.4,2.2-0.4,3.4V201.8z"/>
		<path fill="#FFFFFF" d="M737.5,168.1l8.8,28.8c1,3.5,2.2,7.8,2.9,10.9h0.4c0.8-3.1,1.8-7.6,2.6-10.9l7.2-28.8h19.6l-13.7,38.6
			c-8.4,23.3-14,32.6-20.6,38.5c-6.4,5.5-13.1,7.4-17.6,8l-3.8-15.5c2.3-0.4,5.2-1.4,7.9-3.1c2.8-1.4,5.8-4.3,7.6-7.3
			c0.6-0.8,1-1.8,1-2.6c0-0.6-0.1-1.6-0.8-3l-21.5-53.6H737.5z"/>
	</g>
</g>
<g>
	<path fill="#FFFFFF" d="M233.2,587.8l-5.8,20.8h-19l24.7-80.9h24l25.1,80.9h-19.7l-6.2-20.8H233.2z M253.7,574.2l-5-17.2
		c-1.4-4.8-2.9-10.8-4.1-15.6h-0.2c-1.2,4.8-2.4,10.9-3.7,15.6l-4.8,17.2H253.7z"/>
	<path fill="#FFFFFF" d="M346,589.8c0,7.7,0.2,13.9,0.5,18.8h-15.8l-0.8-8.3h-0.4c-2.3,3.6-7.8,9.6-18.4,9.6
		c-11.9,0-20.6-7.4-20.6-25.6v-34.4h18.4v31.6c0,8.5,2.8,13.7,9.1,13.7c5,0,7.9-3.5,9.1-6.4c0.5-1.1,0.6-2.5,0.6-4v-34.9H346V589.8z
		"/>
	<path fill="#FFFFFF" d="M381.1,533.1v16.8h13.1v13.4h-13.1v21.2c0,7.1,1.7,10.3,7.2,10.3c2.3,0,4.1-0.2,5.4-0.5l0.1,13.8
		c-2.4,1-6.7,1.6-11.9,1.6c-5.9,0-10.8-2-13.7-5c-3.4-3.5-5-9.1-5-17.4v-24h-7.8v-13.4h7.8v-12.7L381.1,533.1z"/>
	<path fill="#FFFFFF" d="M462.1,578.6c0,21.5-15.2,31.3-31,31.3c-17.2,0-30.4-11.3-30.4-30.2c0-19,12.5-31.1,31.3-31.1
		C450.1,548.6,462.1,561,462.1,578.6z M419.6,579.2c0,10.1,4.2,17.6,12,17.6c7.1,0,11.6-7.1,11.6-17.6c0-8.8-3.4-17.6-11.6-17.6
		C422.8,561.6,419.6,570.6,419.6,579.2z"/>
	<path fill="#FFFFFF" d="M498.2,528.8c5.6-1,13.6-1.7,24.7-1.7c11.3,0,19.3,2.2,24.7,6.5c5.2,4.1,8.6,10.8,8.6,18.7
		s-2.6,14.6-7.4,19.2c-6.2,5.9-15.5,8.5-26.3,8.5c-2.4,0-4.6-0.1-6.2-0.4v28.9h-18.1V528.8z M516.3,565.5c1.6,0.4,3.5,0.5,6.1,0.5
		c9.7,0,15.7-4.9,15.7-13.2c0-7.4-5.2-11.9-14.3-11.9c-3.7,0-6.2,0.4-7.6,0.7V565.5z"/>
	<path fill="#FFFFFF" d="M622.4,578.6c0,21.5-15.2,31.3-31,31.3c-17.2,0-30.4-11.3-30.4-30.2c0-19,12.5-31.1,31.3-31.1
		C610.4,548.6,622.4,561,622.4,578.6z M579.9,579.2c0,10.1,4.2,17.6,12,17.6c7.1,0,11.6-7.1,11.6-17.6c0-8.8-3.4-17.6-11.6-17.6
		C583.1,561.6,579.9,570.6,579.9,579.2z"/>
	<path fill="#FFFFFF" d="M633.5,592.6c3.4,2,10.3,4.4,15.7,4.4c5.5,0,7.8-1.9,7.8-4.9c0-3-1.8-4.4-8.6-6.7
		c-12.1-4.1-16.8-10.7-16.7-17.6c0-10.9,9.4-19.2,23.9-19.2c6.8,0,13,1.6,16.6,3.4l-3.2,12.6c-2.6-1.4-7.7-3.4-12.7-3.4
		c-4.4,0-7,1.8-7,4.8c0,2.8,2.3,4.2,9.5,6.7c11.2,3.8,15.8,9.5,16,18.1c0,10.9-8.6,19-25.4,19c-7.7,0-14.5-1.7-19-4.1L633.5,592.6z"
		/>
	<path fill="#FFFFFF" d="M706.1,533.1v16.8h13.1v13.4h-13.1v21.2c0,7.1,1.7,10.3,7.2,10.3c2.3,0,4.1-0.2,5.4-0.5l0.1,13.8
		c-2.4,1-6.7,1.6-11.9,1.6c-5.9,0-10.8-2-13.7-5c-3.4-3.5-5-9.1-5-17.4v-24h-7.8v-13.4h7.8v-12.7L706.1,533.1z"/>
	<path fill="#FFFFFF" d="M743.2,585.1c0.6,7.6,8,11.2,16.6,11.2c6.2,0,11.3-0.8,16.2-2.4l2.4,12.4c-6,2.4-13.3,3.6-21.2,3.6
		c-19.9,0-31.3-11.5-31.3-29.9c0-14.9,9.2-31.3,29.6-31.3c19,0,26.2,14.8,26.2,29.3c0,3.1-0.4,5.9-0.6,7.2H743.2z M764.7,572.6
		c0-4.4-1.9-11.9-10.3-11.9c-7.7,0-10.8,7-11.3,11.9H764.7z"/>
	<path fill="#FFFFFF" d="M792.5,569.2c0-8.6-0.2-14.3-0.5-19.3h15.7l0.6,10.8h0.5c3-8.5,10.2-12.1,15.8-12.1c1.7,0,2.5,0,3.8,0.2
		V566c-1.3-0.2-2.9-0.5-4.9-0.5c-6.7,0-11.3,3.6-12.5,9.2c-0.2,1.2-0.4,2.6-0.4,4.1v29.8h-18.2V569.2z"/>
</g>
</svg>
