<?xml version="1.0" encoding="utf-8"?>
<!-- Generator: Adobe Illustrator 18.0.0, SVG Export Plug-In . SVG Version: 6.00 Build 0)  -->
<!DOCTYPE svg PUBLIC "-//W3C//DTD SVG 1.1//EN" "http://www.w3.org/Graphics/SVG/1.1/DTD/svg11.dtd">
<svg version="1.1" id="Layer_1" xmlns="http://www.w3.org/2000/svg" xmlns:xlink="http://www.w3.org/1999/xlink" x="0px" y="0px"
	 viewBox="0 0 1024 768" enable-background="new 0 0 1024 768" xml:space="preserve">
<linearGradient id="SVGID_1_" gradientUnits="userSpaceOnUse" x1="64" y1="-64" x2="960" y2="832">
	<stop  offset="0" style="stop-color:#414042"/>
	<stop  offset="0.3842" style="stop-color:#000000"/>
	<stop  offset="0.6404" style="stop-color:#414042"/>
	<stop  offset="0.8177" style="stop-color:#000000"/>
</linearGradient>
<rect fill="url(#SVGID_1_)" width="1024" height="768"/>
<g opacity="0.2">
	<path fill="#02628A" d="M-290,785.8h60.1V548.7l93,206.7c11,25,26,33.9,55.4,33.9c29.5,0,43.9-8.9,54.9-33.9l93-206.7v237.1h60.1
		V549.1c0-23.1-9.2-34.3-28.3-40c-45.6-14.2-76.2-1.9-90.1,28.9l-91.2,204l-88.3-204c-13.3-30.8-44.5-43.1-90.1-28.9
		c-19.1,5.8-28.3,16.9-28.3,40V785.8L-290,785.8z"/>
	<path fill="#02628A" d="M176.3,592.8h60v130.7c-0.6,7.1,2.3,23.8,35.2,24.3c16.8,0.3,129.5,0,130.6,0V592.2h60.2
		c0.3,0-0.1,212.1-0.1,213c0.3,52.3-64.9,63.7-95,64.6H177.6v-40.4c0.3,0,189.5,0,190,0c38.7-4.1,34.1-23.3,34.1-29.8v-15.8H274
		c-59.4-0.5-97.2-26.5-97.7-56.3C176.2,724.8,177.6,594.1,176.3,592.8L176.3,592.8z"/>
	<path fill="#E18D25" d="M508.5,785.8h172.7c20.2,0,39.8-4.2,55.4-11.5c26-11.9,38.7-28.1,38.7-49.3v-43.9
		c0-17.3-14.4-33.5-42.7-44.3c-15-5.8-33.5-8.8-51.4-8.8h-72.8c-24.3,0-35.8-7.3-38.7-23.5c-0.6-1.9-0.6-3.5-0.6-5.4v-27.3
		c0-1.5,0-3.1,0.6-5c2.9-12.3,9.2-15.8,30.6-17.7c1.7,0,4-0.4,5.8-0.4h171.5v-40H609c-24.3,0-37,1.5-48.5,5
		c-35.8,11.2-51.4,28.9-51.4,59.7v35c0,27,30.6,50.1,82,55.4c5.8,0.4,11.5,0.8,17.3,0.8h62.4c2.3,0,4.6,0,6.3,0.4
		c19.1,1.5,27.1,5,32.9,11.9c3.5,3.5,4.6,6.9,4.6,10.8v35c0,4.2-2.9,9.6-8.7,14.2c-5.2,4.6-13.9,7.7-25.4,8.5c-2.3,0-4,0.4-6.4,0.4
		H508.5V785.8L508.5,785.8z"/>
	<path fill="#E18D25" d="M813.6,718.2V575.5c0-36.3,25.5-58.3,75.8-65.2c5.2-0.8,11-1.2,16.2-1.2h114c5.8,0,11,0.4,16.8,1.2
		c50.3,6.9,75.8,28.9,75.8,65.2v142.7c0,29.4-10.8,45.2-35.7,55.4l59.1,53.4h-69.7l-47.9-43.2l-48.2,3h-64.2c-11,0-22.6-1.5-35.3-5
		C832.1,771.5,813.6,751.4,813.6,718.2L813.6,718.2z M878.4,714.8c0,1.9,0.6,3.9,1.2,6.2c3.5,16.6,19.1,25.8,42.8,25.8h54.6
		l-50.1-45.2h69.7l43.7,39.5c8.1-4.3,13.4-10.9,15.2-19.3c0.6-1.9,0.6-3.9,0.6-5.8V579c0-1.5,0-3.5-0.6-5.4
		c-3.5-15.4-19.1-24.3-42.2-24.3h-90.8c-26.6,0-44,11.6-44,29.7V714.8L878.4,714.8z"/>
	<path fill="#02628A" d="M1468.9,442.2c-36.9-1-65.1,2.4-89.2,12.6c-6.8,2.9-17.8,3-18.9,11.5c3.8,3.9,4.3,9.8,7.3,14.7
		c5.8,9.3,15.5,21.8,24.1,28.3c9.5,7.2,19.2,14.8,29.4,21c18.1,11,38.2,17.3,55.6,28.3c10.3,6.5,20.4,14.7,30.4,22
		c4.9,3.6,8.3,9.3,14.7,11.5c0-0.3,0-0.7,0-1.1c-3.4-4.3-4.2-10.2-7.4-14.7c-4.5-4.5-9.1-9.1-13.6-13.6
		c-13.3-17.7-30.3-33.3-48.3-46.2c-14.4-10.3-46.5-24.2-52.5-40.9c-0.4-0.3-0.7-0.7-1.1-1.1c10.2-1.1,22.1-4.8,31.5-7.3
		c15.8-4.2,29.9-3.1,46.2-7.4c7.4-2.1,14.7-4.2,22-6.3c0-1.4,0-2.8,0-4.2c-8.2-8.4-14.1-19.6-23.1-27.3c-23.5-20-49.2-40-75.6-56.7
		c-14.6-9.2-32.8-15.3-48.3-23.1c-5.2-2.6-14.4-4-17.8-8.4c-8.2-10.4-12.6-23.6-18.9-35.7c-13.2-25.4-26.1-53.1-37.8-79.8
		c-8-18.2-13.2-36.2-23.1-52.5c-47.7-78.4-99-125.7-178.4-172.1c-16.9-9.9-37.3-13.8-58.8-18.9c-11.5-0.7-23.1-1.4-34.6-2.1
		c-7.1-2.9-14.4-11.6-21-15.7c-26.3-16.6-93.9-52.8-113.4-5.2c-12.3,30,18.4,59.3,29.4,74.5c7.7,10.7,17.6,22.6,23.1,34.6
		c3.6,7.9,4.2,15.8,7.3,24.1c7.6,20.6,14.3,42.9,24.1,61.9c5,9.6,10.5,19.7,16.8,28.3c3.9,5.3,10.5,7.6,11.5,15.7
		c-6.5,9.1-6.9,23.2-10.5,34.6C934,277.7,940.2,342,964,380.3c7.3,11.8,24.6,37,48.3,27.3c20.7-8.5,16.1-34.6,22-57.7
		c1.3-5.2,0.5-9.1,3.2-12.6c0,0.3,0,0.7,0,1.1c6.3,12.6,12.6,25.2,18.9,37.8c14,22.5,38.8,46,59.8,61.9
		c10.9,8.2,19.5,22.5,33.6,27.3c0-0.3,0-0.7,0-1.1c-0.4,0-0.7,0-1.1,0c-2.7-4.3-7-6-10.5-9.4c-8.2-8.1-17.4-18.1-24.1-27.3
		c-19.1-26-36-54.4-51.4-84c-7.4-14.1-13.7-29.7-19.9-44.1c-2.4-5.5-2.4-13.9-7.3-16.8c-6.8,10.5-16.8,19.1-22,31.5
		c-8.4,19.9-9.5,44.1-12.6,69.3c-1.8,0.7-1,0.2-2.1,1.1c-14.6-3.5-19.8-18.6-25.2-31.5c-13.7-32.6-16.3-85.2-4.2-122.8
		c3.1-9.7,17.3-40.4,11.5-49.3c-2.7-9-11.7-14.1-16.8-21c-6.2-8.5-12.5-19.6-16.8-29.4c-11.2-25.5-16.5-54-28.3-79.8
		C913.3,38.4,903.7,26,895.8,15c-8.7-12.1-18.4-21-25.2-35.7c-2.4-5.2-5.7-13.5-2.1-18.9c1.1-3.6,2.7-5.1,6.3-6.3
		c6.1-4.7,23,1.6,29.4,4.2c16.8,7,30.9,13.6,45.1,23.1c6.9,4.5,13.8,13.3,22,15.7c3.1,0,6.3,0,9.4,0c14.8,3.4,31.3,1.1,45.1,5.2
		c24.4,7.4,46.3,18.9,66.1,31.5c60.5,38.2,110,92.6,143.8,157.4c5.4,10.4,7.8,20.4,12.6,31.5c9.7,22.3,21.9,45.3,31.5,67.2
		c9.6,21.8,19,43.8,32.5,61.9c7.1,9.5,34.7,14.6,47.2,19.9c8.8,3.7,23.2,7.6,31.5,12.6c15.9,9.6,31.3,21,46.2,31.5
		C1444.9,421.2,1467.8,432.8,1468.9,442.2L1468.9,442.2z"/>
	<path fill-rule="evenodd" clip-rule="evenodd" fill="#02628A" d="M999.7,42.3c-7.7-0.1-13.1,0.8-18.9,2.1c0,0.3,0,0.7,0,1.1
		c0.3,0,0.7,0,1.1,0c3.7,7.5,10.2,12.4,14.7,18.9c3.5,7.3,7,14.7,10.5,22c0.3-0.3,0.7-0.7,1.1-1c6.5-4.6,9.5-11.9,9.4-23.1
		c-2.6-2.7-3-6.2-5.2-9.4C1009.3,48.5,1003.5,46,999.7,42.3L999.7,42.3z"/>
</g>
<g opacity="0.2">
	<ellipse fill="#617CBE" cx="167.1" cy="207.6" rx="439.3" ry="224.7"/>
	
		<radialGradient id="SVGID_2_" cx="-38.9836" cy="-2.4175" r="365.8931" gradientTransform="matrix(0.6353 -0.7723 0.5838 0.4802 -12.8076 -31.3637)" gradientUnits="userSpaceOnUse">
		<stop  offset="9.852217e-003" style="stop-color:#FFFFFF"/>
		<stop  offset="0.2884" style="stop-color:#D0D7E5"/>
		<stop  offset="0.919" style="stop-color:#5A72A4"/>
		<stop  offset="1" style="stop-color:#4A659B"/>
	</radialGradient>
	<path fill="url(#SVGID_2_)" d="M167.1-17.1c242.6,0,439.3,100.6,439.3,224.7S409.7,432.3,167.1,432.3s-439.3-100.6-439.3-224.7
		S-75.5-17.1,167.1-17.1 M167.1-34.9C47-34.9-66.2-10.8-151.6,32.9C-240.9,78.5-290,140.6-290,207.6s49.1,129.1,138.4,174.8
		c85.4,43.7,198.6,67.8,318.7,67.8s233.3-24.1,318.7-67.8c89.2-45.6,138.4-107.7,138.4-174.8S575,78.5,485.8,32.9
		C400.4-10.8,287.2-34.9,167.1-34.9L167.1-34.9z"/>
	<g>
		<g>
			<path d="M-110.3,346.4c-0.4,0-0.8,0-1.2,0c-4.8-0.2-9.9-0.3-16.3-0.3c-3.9,0-7.9,0-12.1,0.1c-4.4,0-8.9,0.1-13.6,0.1h-1.8
				l48.4-243.8h1.2c13.4,0,26.9-0.3,39.9-0.5c12.8-0.3,26.1-0.5,39-0.5c19.3,0,35.1,0.6,49.8,1.8c18.1,1.6,32.9,9.2,42.7,22.2
				c12.2,16.1,16.1,39.7,11.1,66.3c-5.1,26.9-17.9,49.5-37,65.3c-19.1,15.8-43.6,24.2-70.9,24.2c0,0-0.4,0-0.4,0
				c-4.3,0-8.7,0-13,0.1c-4.4,0-8.7,0.1-13,0.1c-7,0-12.8-0.1-18.2-0.3c-0.7,0-1.3,0-2,0c-7.3,0-11.3,1.7-12.2,10.9
				c-0.8,8.1-2.6,16.2-4.3,24.1c-1.3,6-2.6,12.1-3.5,18.2C-98.8,341.6-101.4,346.4-110.3,346.4z M-58.8,239l10.1,0
				c43.8,0,61.6-15.2,68.4-58.1c1.6-10.2-0.3-19.1-5.4-25.7C9.3,149,1.7,145.2-7.9,144.4c-7.2-0.6-15.1-1-23.9-1
				c-7.7,0-15.3,0.2-21.8,0.5c-2.5,0.1-7.1,3.6-7.5,5.8c-4.2,22.9-7.8,45.9-11.7,70.2c-1,6.3-2,12.7-3.1,19.2L-58.8,239z"/>
			<path fill="#FFFFFF" d="M-26.8,102.9c16.7,0,33.2,0.4,49.7,1.8c41.9,3.6,61.4,39.6,52.4,86.7C65,245.6,23.8,279.8-31.1,279.8
				c0,0,0,0-0.1,0c-0.1,0-0.2,0-0.4,0c-8.7,0-17.4,0.1-26.1,0.1c-6,0-12.1-0.1-18.1-0.3c-0.7,0-1.4,0-2,0c-8,0-12.7,2.1-13.7,12.2
				c-1.5,14.2-5.7,28.1-7.8,42.2c-1.1,7.4-3.7,10.9-11.1,10.9c-0.4,0-0.8,0-1.2,0c-5.4-0.2-10.8-0.3-16.3-0.3
				c-8.1,0-16.5,0.2-25.6,0.2c16.3-81.9,32.1-161.7,47.8-240.8C-79,104-52.8,102.9-26.8,102.9 M-58.5,240.5c3.3,0,6.5,0,9.8,0
				c44.5,0,63-15.8,69.8-59.3c3.3-20.8-7.9-36.4-28.9-38.3c-8-0.7-16-1-24.1-1c-7.3,0-14.6,0.2-21.8,0.5c-3.2,0.1-8.4,4.1-8.9,7
				c-5.3,29.5-9.9,59.1-15.1,91.1C-70.4,240.5-64.3,240.5-58.5,240.5 M-26.8,99.9c-12.9,0-26.2,0.3-39,0.5
				c-13,0.3-26.5,0.5-39.9,0.5h-2.5l-0.5,2.4l-8.8,44.3l-39,196.5l-0.7,3.6h3.7c4.7,0,9.2,0,13.6-0.1c4.2,0,8.1-0.1,12-0.1
				c6.3,0,11.5,0.1,16.2,0.3c0.5,0,0.9,0,1.3,0c10.6,0,13.1-6.8,14.1-13.4c0.9-6,2.2-12.2,3.5-18.1c1.7-7.9,3.5-16.1,4.3-24.3
				c0.9-8.2,3.9-9.6,10.7-9.6c0.6,0,1.2,0,1.9,0c5.4,0.2,11.2,0.3,18.2,0.3c4.4,0,8.8,0,13.1-0.1c4.3,0,8.7-0.1,13-0.1l0.3,0h0.1
				c27.6,0,52.5-8.5,71.8-24.5c19.3-16.1,32.3-38.9,37.5-66.2c5.2-27.1,1.1-51.1-11.3-67.5c-10.1-13.3-25.2-21.2-43.8-22.8
				C8.4,100.5-7.5,99.9-26.8,99.9L-26.8,99.9z M-74.1,237.5c1-5.9,1.9-11.7,2.8-17.5c3.9-24.3,7.6-47.2,11.7-70.1
				c0.3-1.4,4.1-4.5,6.1-4.5c6.4-0.2,14-0.5,21.7-0.5c8.8,0,16.6,0.3,23.8,0.9c9.1,0.8,16.4,4.4,21,10.3c4.9,6.3,6.7,14.7,5.1,24.5
				c-3.4,21.5-9.7,35.6-19.8,44.2c-10.1,8.6-25.1,12.6-47.1,12.6c-3.2,0-6.4,0-9.7,0l-8.5,0L-74.1,237.5L-74.1,237.5z"/>
		</g>
		<g>
			<path d="M284.1,346.4c-3.9,0-7.8,0-11.7-0.1c-4,0-8.2-0.1-12.4-0.1h-1.8l48.7-245.3h1.2c12.1,0,24.3-0.2,36.1-0.4
				c11.6-0.2,23.6-0.4,35.3-0.4c16.9,0,30.8,0.4,43.7,1.2c26,1.7,45.2,10.3,56.9,25.8c12.2,16.2,15.5,39.5,9.5,67.4
				c-11.5,53.4-52.5,86.6-107.1,86.6c0,0,0,0,0,0c-4.7,0-9.3,0-13.9,0c-4.6,0-9.2,0-13.8,0c-7.7,0-14-0.1-19.8-0.2
				c-0.3,0-0.6,0-0.8,0c-6.9,0-9.4,2.2-10.4,9.1c-2.2,15.3-5.2,30.4-8.9,45.1c-1.1,4.3-6.6,10.1-10.9,10.4
				C298.3,346.2,292.1,346.4,284.1,346.4z M356.3,239c3.6,0,7,0,10.4,0c41.6-0.1,60.9-17,66.6-58.4c1.4-10.2-0.6-19.1-5.8-25.5
				c-4.9-6.2-12.6-9.9-22.2-10.7c-7.2-0.6-15-0.9-23.9-0.9c-7.9,0-15.8,0.3-21.8,0.5c-2.4,0.1-6.9,3.8-7.3,5.9
				c-4.2,22.9-7.9,45.7-11.8,69.9c-1,6.3-2.1,12.8-3.1,19.3L356.3,239z"/>
			<path fill="#FFFFFF" d="M379.5,101.7c14.6,0,29.1,0.3,43.6,1.2c53.5,3.4,76.6,37.6,65,91.5c-11.3,52.6-52,85.5-105.6,85.5
				c0,0,0,0-0.1,0c-9.2,0-18.4,0.1-27.6,0.1c-6.6,0-13.2,0-19.8-0.2c-0.3,0-0.6,0-0.9,0c-7.1,0-10.7,2.4-11.8,10.4
				c-2.1,15.1-5.1,30.2-8.9,45c-1,3.8-6,9-9.6,9.3c-6.5,0.5-13.1,0.6-19.8,0.6c-7.8,0-15.8-0.2-24.2-0.2
				c16.2-81.5,32.1-161.6,48.1-242.3C332.2,102.4,355.9,101.7,379.5,101.7 M356.3,240.5c3.6,0,7,0,10.5,0
				c42.4-0.1,62.3-17.6,68-59.7c2.9-21-8.2-36.1-29.3-38c-8-0.7-16-0.9-24-0.9c-7.3,0-14.6,0.2-21.8,0.5c-3.1,0.1-8.1,4.2-8.7,7.2
				c-5.4,29.4-10,59-15.2,90.9C343.6,240.5,350.2,240.5,356.3,240.5 M379.5,98.7c-11.7,0-23.7,0.2-35.4,0.4
				c-11.8,0.2-24,0.4-36.1,0.4h-2.5l-0.5,2.4L257,344.1l-0.7,3.6h3.7c4.2,0,8.4,0,12.4,0.1c4,0,7.9,0.1,11.7,0.1
				c8,0,14.2-0.2,20-0.6c5-0.4,11-6.7,12.2-11.5c3.8-14.7,6.8-30,8.9-45.3c0.9-6.1,2.8-7.8,8.9-7.8c0.3,0,0.5,0,0.8,0
				c5.8,0.1,12.1,0.2,19.9,0.2c4.6,0,9.3,0,13.8,0c4.5,0,9.2,0,13.8,0h0.1c27,0,51.4-8.2,70.6-23.7c19.1-15.5,32.3-37.7,38-64.1
				c6.1-28.4,2.7-52.1-9.8-68.7c-12-15.9-31.5-24.8-58-26.4C410.3,99,396.4,98.7,379.5,98.7L379.5,98.7z M339.3,237.5
				c1-5.9,1.9-11.8,2.8-17.5c3.9-24.2,7.6-47,11.8-69.9c0.3-1.4,4-4.7,5.8-4.7c6-0.2,13.9-0.5,21.7-0.5c8.8,0,16.5,0.3,23.7,0.9
				c9.1,0.8,16.4,4.3,21.1,10.2c4.9,6.1,6.8,14.6,5.5,24.4c-2.8,20.8-9,34.7-19.3,43.7c-10.3,9-24.9,13.3-45.8,13.3
				c-3.4,0-6.9,0-10.5,0c-2.9,0-5.8,0-9,0C344.8,237.5,342.1,237.5,339.3,237.5L339.3,237.5z"/>
		</g>
		<g>
			<path d="M96.1,281.7c-4.8,0-9.6-0.3-14.7-0.7c-5-0.3-10.3-0.7-15.4-0.7h-1.8l0.3-1.8c2-10.5,4.1-21,6.1-31.4
				c4.5-23.5,8.8-45.7,13.3-68.4c2.9-14.4,5.8-29.1,8.7-43.3c5.7-28.2,11.6-57.3,16.9-86c1.8-9.8,5.7-13.4,14.2-13.4
				c0.5,0,1.1,0,1.7,0c4.5,0.2,9.4,0.3,15.4,0.3c3.8,0,7.7,0,11.7-0.1c4.2,0,8.5-0.1,13-0.1h1.8l-11.8,64.1c4.8,0,9.5-0.1,14.1-0.2
				c5.1-0.1,10-0.1,14.9-0.1c7.5,0,13.7,0.2,19.4,0.6c12.8,0.9,27.5,2.2,41,6.7c22.7,7.6,32.5,24.7,28.3,49.4
				c-4.8,28.4-9.7,56.1-14.8,85.5c-2.1,12.1-4.3,24.4-6.4,36.7l-0.2,1.2h-57.8l0.3-1.8c2.1-11,4.1-21.9,6.1-32.8
				c4.9-26.2,10-53.2,14.9-79.8c1.5-7.9,0.8-13.4-1.9-16.8c-2.7-3.4-7.8-5.1-15.6-5.4c-5.8-0.2-12.1-0.3-19.7-0.3
				c-5.1,0-10.2,0-15.5,0.1c-5.1,0-10.3,0.1-15.6,0.1l-3.8,18.8c-5,24.3-9.9,48.4-14.8,72.6c-0.2,1-0.4,1.9-0.5,2.9
				c-0.2,1.5-0.5,3-0.8,4.4c-0.9,3.7-1.6,8.3-2.3,12.7c-1.6,10.9-3.2,21.3-8.8,23.5C110.5,280.7,104.2,281.7,96.1,281.7z"/>
			<path fill="#FFFFFF" d="M123.8,37.7c0.5,0,1.1,0,1.6,0c5.1,0.2,10.2,0.3,15.5,0.3c7.8,0,15.9-0.2,24.6-0.2
				c-4.1,22.3-7.7,42.1-11.8,64.2c10.6,0,20.8-0.3,30.7-0.3c6.5,0,12.9,0.1,19.3,0.6c13.7,0.9,27.8,2.3,40.6,6.6
				c22.6,7.6,31.3,24.2,27.3,47.7c-6.9,40.4-14,80.7-21.3,122.1c-18,0-36,0-54.8,0c7.1-37.9,14.2-75.2,21-112.5
				c3-16.3-2.4-23.4-18.9-23.9c-6.6-0.2-13.1-0.3-19.8-0.3c-10.4,0-21,0.2-32.3,0.2c-6.3,31.1-12.6,61.9-18.9,92.6
				c-0.5,2.4-0.7,4.9-1.3,7.3c-3.1,12.3-3.2,32.4-10.1,35.2c-5.8,2.3-12.3,3-19.1,3c-9.6,0-19.9-1.3-30.1-1.3
				c6.6-33.9,12.9-66.9,19.4-99.8C94,136,103.1,93.1,111.1,49.9C112.7,41.1,115.8,37.7,123.8,37.7 M123.8,34.7
				C123.8,34.7,123.8,34.7,123.8,34.7c-10.8,0-14.1,5.8-15.7,14.6c-5.3,28.7-11.2,57.8-16.9,86c-2.9,14.2-5.8,28.8-8.7,43.3
				c-4.5,22.7-8.8,44.9-13.3,68.5c-2,10.3-4,20.8-6,31.3l-0.7,3.6h3.6c5.1,0,10.3,0.3,15.3,0.7c4.9,0.3,10,0.7,14.8,0.7
				c8.3,0,14.7-1,20.2-3.2c6.4-2.6,8-13.3,9.7-24.7c0.6-4.4,1.3-8.9,2.2-12.5c0.4-1.5,0.6-3.1,0.9-4.6c0.2-1,0.3-1.9,0.5-2.9
				c5-24.6,10-49.2,15.1-74l3.3-16.2c4.9,0,9.7,0,14.4-0.1c5.3,0,10.4-0.1,15.5-0.1c7.6,0,13.9,0.1,19.7,0.3
				c7.3,0.2,12,1.8,14.4,4.8c2.5,3,3,8.1,1.6,15.6c-4.9,26.5-9.9,53.6-14.9,79.8c-2,10.9-4.1,21.8-6.1,32.8l-0.7,3.6h3.6h54.8h2.5
				l0.4-2.5c2.1-12.3,4.3-24.5,6.4-36.7c5.1-29.4,10-57.1,14.8-85.5c4.3-25.5-5.8-43.2-29.3-51.1c-13.7-4.6-28.5-5.9-41.4-6.8
				c-5.7-0.4-11.9-0.6-19.5-0.6c-4.9,0-9.7,0.1-14.9,0.1c-4,0.1-8.1,0.1-12.2,0.1l8.6-46.9l2.5-13.7l0.7-3.5h-3.6
				c-4.5,0-8.8,0-13,0.1c-4,0-7.8,0.1-11.6,0.1c-6,0-10.8-0.1-15.3-0.3C125,34.7,124.4,34.7,123.8,34.7L123.8,34.7L123.8,34.7z"/>
		</g>
	</g>
</g>
<polygon fill="none" points="379.5,490.3 379.5,490.3 390.7,620.5 "/>
<g>
	<path fill="#FFFFFF" d="M288.2,606.3c-3.4,1.7-10.9,3.5-20.8,3.5c-28,0-42.4-17.4-42.4-40.4c0-27.6,19.7-43,44.2-43
		c9.5,0,16.7,1.9,19.9,3.6l-3.7,14.5c-3.7-1.6-8.9-3-15.4-3c-14.5,0-25.8,8.8-25.8,26.8c0,16.2,9.6,26.4,25.9,26.4
		c5.5,0,11.6-1.2,15.2-2.6L288.2,606.3z"/>
	<path fill="#FFFFFF" d="M299.2,523.4h18.2v33.5h0.2c1.9-2.5,4.3-4.4,7.2-6c2.6-1.4,6.1-2.3,9.5-2.3c11.6,0,20.5,8,20.5,25.7v34.3
		h-18.2v-32.3c0-7.7-2.6-13-9.5-13c-4.8,0-7.8,3.1-9.1,6.4c-0.5,1.2-0.6,2.8-0.6,4.1v34.8h-18.2V523.4z"/>
	<path fill="#FFFFFF" d="M402.9,608.6l-1.1-5.9h-0.4c-3.8,4.7-9.8,7.2-16.8,7.2c-11.9,0-19-8.6-19-18c0-15.2,13.7-22.6,34.4-22.4
		v-0.8c0-3.1-1.7-7.6-10.7-7.6c-6,0-12.4,2-16.2,4.4l-3.4-11.8c4.1-2.3,12.1-5.2,22.8-5.2c19.6,0,25.8,11.5,25.8,25.3v20.4
		c0,5.6,0.2,11,0.8,14.3H402.9z M400.8,580.9c-9.6-0.1-17,2.2-17,9.2c0,4.7,3.1,7,7.2,7c4.6,0,8.3-3,9.5-6.7c0.2-1,0.4-2,0.4-3.1
		V580.9z"/>
	<path fill="#FFFFFF" d="M452.4,533.1v16.8h13.1v13.4h-13.1v21.2c0,7.1,1.7,10.3,7.2,10.3c2.3,0,4.1-0.2,5.4-0.5l0.1,13.8
		c-2.4,1-6.7,1.6-11.9,1.6c-5.9,0-10.8-2-13.7-5c-3.4-3.5-5-9.1-5-17.4v-24h-7.8v-13.4h7.8v-12.7L452.4,533.1z"/>
	<path fill="#FFFFFF" d="M500.8,528.8c5.9-1,14.6-1.7,24.4-1.7c12,0,20.4,1.8,26.2,6.4c4.8,3.8,7.4,9.5,7.4,16.9
		c0,10.3-7.3,17.4-14.3,19.9v0.4c5.6,2.3,8.8,7.7,10.8,15.1c2.5,9.1,5,19.7,6.6,22.8h-18.7c-1.3-2.3-3.2-8.9-5.6-18.8
		c-2.2-10.1-5.6-12.8-13.1-13H519v31.8h-18.1V528.8z M519,563.6h7.2c9.1,0,14.5-4.6,14.5-11.6c0-7.4-5-11.2-13.4-11.3
		c-4.4,0-7,0.4-8.3,0.6V563.6z"/>
	<path fill="#FFFFFF" d="M629.4,578.6c0,21.5-15.2,31.3-31,31.3c-17.2,0-30.4-11.3-30.4-30.2s12.5-31.1,31.3-31.1
		C617.4,548.6,629.4,561,629.4,578.6z M586.9,579.2c0,10.1,4.2,17.6,12,17.6c7.1,0,11.6-7.1,11.6-17.6c0-8.8-3.4-17.6-11.6-17.6
		C590.1,561.6,586.9,570.6,586.9,579.2z"/>
	<path fill="#FFFFFF" d="M699,578.6c0,21.5-15.2,31.3-31,31.3c-17.2,0-30.4-11.3-30.4-30.2s12.5-31.1,31.3-31.1
		C687,548.6,699,561,699,578.6z M656.5,579.2c0,10.1,4.2,17.6,12,17.6c7.1,0,11.6-7.1,11.6-17.6c0-8.8-3.4-17.6-11.6-17.6
		C659.7,561.6,656.5,570.6,656.5,579.2z"/>
	<path fill="#FFFFFF" d="M710.2,568.6c0-7.3-0.2-13.6-0.5-18.7h15.4l0.8,7.9h0.4c2.5-3.7,7.7-9.2,17.8-9.2c7.6,0,13.6,3.8,16.1,10
		h0.2c2.2-3,4.8-5.4,7.6-7.1c3.2-1.9,6.8-2.9,11.2-2.9c11.3,0,19.8,7.9,19.8,25.4v34.6h-17.8v-31.9c0-8.5-2.8-13.4-8.6-13.4
		c-4.2,0-7.2,2.9-8.4,6.4c-0.5,1.3-0.7,3.2-0.7,4.7v34.3h-17.8v-32.9c0-7.4-2.6-12.5-8.4-12.5c-4.7,0-7.4,3.6-8.5,6.6
		c-0.6,1.4-0.7,3.1-0.7,4.6v34.2h-17.8V568.6z"/>
</g>
<g>
	<g>
		<path fill="#02628A" d="M119.9,258.6h12.8v-50.4l19.8,43.9c2.3,5.3,5.5,7.2,11.8,7.2c6.3,0,9.3-1.9,11.7-7.2l19.8-43.9v50.4h12.8
			v-50.3c0-4.9-2-7.3-6-8.5c-9.7-3-16.2-0.4-19.1,6.1l-19.4,43.3L145,205.9c-2.8-6.5-9.4-9.2-19.1-6.1c-4,1.2-6,3.6-6,8.5V258.6
			L119.9,258.6z"/>
		<path fill="#02628A" d="M218.9,217.6h12.8v27.8c-0.1,1.5,0.5,5,7.5,5.2c3.6,0.1,27.5,0,27.7,0v-33h12.8c0.1,0,0,45.1,0,45.3
			c0.1,11.1-13.8,13.5-20.2,13.7h-40.3v-8.6c0.1,0,40.3,0,40.4,0c8.2-0.9,7.2-4.9,7.2-6.3v-3.3h-27.1c-12.6-0.1-20.7-5.6-20.8-12
			C218.9,245.7,219.2,217.9,218.9,217.6L218.9,217.6z"/>
		<path fill="#E18D25" d="M289.5,258.6h36.7c4.3,0,8.5-0.9,11.8-2.5c5.5-2.5,8.2-6,8.2-10.5v-9.3c0-3.7-3.1-7.1-9.1-9.4
			c-3.2-1.2-7.1-1.9-10.9-1.9h-15.5c-5.2,0-7.6-1.6-8.2-5c-0.1-0.4-0.1-0.7-0.1-1.1v-5.8c0-0.3,0-0.7,0.1-1.1c0.6-2.6,2-3.4,6.5-3.8
			c0.4,0,0.9-0.1,1.2-0.1h36.4v-8.5h-35.8c-5.2,0-7.9,0.3-10.3,1.1c-7.6,2.4-10.9,6.1-10.9,12.7v7.4c0,5.7,6.5,10.6,17.4,11.8
			c1.2,0.1,2.5,0.2,3.7,0.2H324c0.5,0,1,0,1.3,0.1c4,0.3,5.8,1.1,7,2.5c0.7,0.7,1,1.5,1,2.3v7.4c0,0.9-0.6,2-1.8,3
			c-1.1,1-2.9,1.6-5.4,1.8c-0.5,0-0.9,0.1-1.4,0.1h-35.2V258.6L289.5,258.6z"/>
		<path fill="#E18D25" d="M425.8,243.8c0,8.8,6.5,13.7,19.6,14.6c1.2,0.1,2.5,0.2,3.7,0.2h33.2v-8.5h-33.5c-7.5,0-10.3-1.9-10.3-6.4
			v-44h-12.8V243.8L425.8,243.8z"/>
		<path fill="#E18D25" d="M354.3,244.3v-30.3c0-7.7,5.4-12.4,16.1-13.9c1.1-0.2,2.3-0.2,3.4-0.2h24.2c1.2,0,2.3,0.1,3.6,0.2
			c10.7,1.5,16.1,6.1,16.1,13.9v30.3c0,6.3-2.3,9.6-7.6,11.8l12.6,11.3h-14.8l-10.2-9.2l-10.2,0.6h-13.6c-2.3,0-4.8-0.3-7.5-1.1
			C358.3,255.6,354.3,251.3,354.3,244.3L354.3,244.3z M368.1,243.5c0,0.4,0.1,0.8,0.2,1.3c0.7,3.5,4.1,5.5,9.1,5.5H389l-10.6-9.6
			h14.8l9.3,8.4c1.7-0.9,2.8-2.3,3.2-4.1c0.1-0.4,0.1-0.8,0.1-1.2v-29.1c0-0.3,0-0.7-0.1-1.1c-0.7-3.3-4.1-5.2-9-5.2h-19.3
			c-5.7,0-9.3,2.5-9.3,6.3V243.5L368.1,243.5z"/>
		<path fill="#02628A" d="M493.6,185.6c-7.8-0.2-13.8,0.5-19,2.7c-1.5,0.6-3.8,0.6-4,2.5c0.8,0.8,0.9,2.1,1.6,3.1
			c1.2,2,3.3,4.6,5.1,6c2,1.5,4.1,3.1,6.2,4.5c3.8,2.3,8.1,3.7,11.8,6c2.2,1.4,4.3,3.1,6.5,4.7c1,0.8,1.8,2,3.1,2.5
			c0-0.1,0-0.1,0-0.2c-0.7-0.9-0.9-2.2-1.6-3.1c-1-1-1.9-1.9-2.9-2.9c-2.8-3.8-6.4-7.1-10.3-9.8c-3.1-2.2-9.9-5.1-11.1-8.7
			c-0.1-0.1-0.1-0.1-0.2-0.2c2.2-0.2,4.7-1,6.7-1.6c3.4-0.9,6.3-0.7,9.8-1.6c1.6-0.4,3.1-0.9,4.7-1.3c0-0.3,0-0.6,0-0.9
			c-1.8-1.8-3-4.2-4.9-5.8c-5-4.3-10.4-8.5-16.1-12c-3.1-2-7-3.2-10.3-4.9c-1.1-0.6-3.1-0.9-3.8-1.8c-1.7-2.2-2.7-5-4-7.6
			c-2.8-5.4-5.5-11.3-8-16.9c-1.7-3.9-2.8-7.7-4.9-11.2c-10.1-16.6-21-26.7-37.9-36.6c-3.6-2.1-7.9-2.9-12.5-4
			c-2.5-0.1-4.9-0.3-7.4-0.4c-1.5-0.6-3.1-2.5-4.5-3.3c-5.6-3.5-19.9-11.2-24.1-1.1c-2.6,6.4,3.9,12.6,6.2,15.8
			c1.6,2.3,3.7,4.8,4.9,7.4c0.8,1.7,0.9,3.4,1.6,5.1c1.6,4.4,3,9.1,5.1,13.2c1.1,2,2.2,4.2,3.6,6c0.8,1.1,2.2,1.6,2.5,3.3
			c-1.4,1.9-1.5,4.9-2.2,7.4c-3.5,11-2.2,24.6,2.9,32.8c1.6,2.5,5.2,7.9,10.3,5.8c4.4-1.8,3.4-7.4,4.7-12.3c0.3-1.1,0.1-1.9,0.7-2.7
			c0,0.1,0,0.1,0,0.2c1.3,2.7,2.7,5.4,4,8c3,4.8,8.2,9.8,12.7,13.2c2.3,1.8,4.1,4.8,7.1,5.8c0-0.1,0-0.1,0-0.2c-0.1,0-0.1,0-0.2,0
			c-0.6-0.9-1.5-1.3-2.2-2c-1.7-1.7-3.7-3.8-5.1-5.8c-4.1-5.5-7.7-11.6-10.9-17.8c-1.6-3-2.9-6.3-4.2-9.4c-0.5-1.2-0.5-3-1.6-3.6
			c-1.4,2.2-3.6,4-4.7,6.7c-1.8,4.2-2,9.4-2.7,14.7c-0.4,0.1-0.2,0-0.4,0.2c-3.1-0.7-4.2-3.9-5.4-6.7c-2.9-6.9-3.5-18.1-0.9-26.1
			c0.7-2.1,3.7-8.6,2.5-10.5c-0.6-1.9-2.5-3-3.6-4.5c-1.3-1.8-2.7-4.2-3.6-6.2c-2.4-5.4-3.5-11.5-6-16.9c-1.2-2.6-3.2-5.3-4.9-7.6
			c-1.8-2.6-3.9-4.5-5.4-7.6c-0.5-1.1-1.2-2.9-0.4-4c0.2-0.8,0.6-1.1,1.3-1.3c1.3-1,4.9,0.3,6.2,0.9c3.6,1.5,6.6,2.9,9.6,4.9
			c1.5,1,2.9,2.8,4.7,3.3c0.7,0,1.3,0,2,0c3.1,0.7,6.7,0.2,9.6,1.1c5.2,1.6,9.8,4,14,6.7c12.9,8.1,23.4,19.7,30.6,33.5
			c1.2,2.2,1.7,4.3,2.7,6.7c2.1,4.7,4.6,9.6,6.7,14.3c2,4.6,4,9.3,6.9,13.2c1.5,2,7.4,3.1,10,4.2c1.9,0.8,4.9,1.6,6.7,2.7
			c3.4,2,6.6,4.5,9.8,6.7C488.5,181.2,493.3,183.6,493.6,185.6L493.6,185.6z"/>
		<path fill-rule="evenodd" clip-rule="evenodd" fill="#02628A" d="M393.9,100.7c-1.6,0-2.8,0.2-4,0.4c0,0.1,0,0.1,0,0.2
			c0.1,0,0.1,0,0.2,0c0.8,1.6,2.2,2.6,3.1,4c0.7,1.6,1.5,3.1,2.2,4.7c0.1-0.1,0.1-0.1,0.2-0.2c1.4-1,2-2.5,2-4.9
			c-0.6-0.6-0.6-1.3-1.1-2C395.9,102,394.7,101.4,393.9,100.7L393.9,100.7z"/>
		<path fill-rule="evenodd" clip-rule="evenodd" fill="#E18D25" d="M488.3,249.9c0,5.6,4.4,9.4,9.4,9.4c5,0,9.4-3.8,9.4-9.4
			c0-5.6-4.4-9.4-9.4-9.4C492.8,240.5,488.3,244.3,488.3,249.9L488.3,249.9z M505,249.9c0,4.3-3.3,7.4-7.3,7.4
			c-4.1,0-7.3-3.2-7.3-7.4c0-4.3,3.2-7.4,7.3-7.4C501.8,242.4,505,245.6,505,249.9L505,249.9z M500.3,255.2h2.1l-3.1-4.7
			c1.7-0.2,2.9-1,2.9-2.9c0-2.2-1.4-3.1-4-3.1H494v10.7h1.8v-4.6h1.7L500.3,255.2L500.3,255.2z M495.8,249.1V246h2.1
			c1.1,0,2.4,0.2,2.4,1.5c0,1.5-1.2,1.6-2.5,1.6H495.8L495.8,249.1z"/>
	</g>
	<g>
		<ellipse fill="#617CBE" cx="217" cy="135.8" rx="93.3" ry="47.7"/>
		
			<radialGradient id="SVGID_3_" cx="173.1875" cy="91.1498" r="77.7378" gradientTransform="matrix(0.6353 -0.7723 0.5838 0.4802 9.9565 181.1326)" gradientUnits="userSpaceOnUse">
			<stop  offset="9.852217e-003" style="stop-color:#FFFFFF"/>
			<stop  offset="0.2884" style="stop-color:#D0D7E5"/>
			<stop  offset="0.919" style="stop-color:#5A72A4"/>
			<stop  offset="1" style="stop-color:#4A659B"/>
		</radialGradient>
		<path fill="url(#SVGID_3_)" d="M217,88c51.5,0,93.3,21.4,93.3,47.7s-41.8,47.7-93.3,47.7s-93.3-21.4-93.3-47.7S165.4,88,217,88
			 M217,84.2c-25.5,0-49.6,5.1-67.7,14.4c-19,9.7-29.4,22.9-29.4,37.1c0,14.2,10.4,27.4,29.4,37.1c18.2,9.3,42.2,14.4,67.7,14.4
			c25.5,0,49.6-5.1,67.7-14.4c19-9.7,29.4-22.9,29.4-37.1c0-14.2-10.4-27.4-29.4-37.1C266.5,89.4,242.5,84.2,217,84.2L217,84.2z"/>
		<g>
			<g>
				<path d="M157.7,166.4c-1,0-2.1-0.1-3.4-0.1c-0.8,0-1.7,0-2.6,0c-0.9,0-1.9,0-2.9,0H147l10.7-54.2h1.2c2.8,0,5.7-0.1,8.5-0.1
					c2.7-0.1,5.5-0.1,8.3-0.1c4.1,0,7.5,0.1,10.7,0.4c4.2,0.4,7.6,2.1,9.9,5.2c2.8,3.7,3.7,9,2.6,15c-2.3,12.1-11.8,20-24.1,20
					c0,0,0,0,0,0c-1,0-1.9,0-2.8,0c-0.9,0-1.9,0-2.8,0c-1.5,0-2.8,0-3.9-0.1c-0.1,0-0.3,0-0.4,0c-1.1,0-1.3,0-1.4,1.3
					c-0.2,1.8-0.6,3.5-0.9,5.2c-0.3,1.2-0.5,2.5-0.7,3.8c-0.1,0.9-0.5,3.6-3.8,3.6C157.9,166.4,157.8,166.4,157.7,166.4z
					 M171.1,141.3c8.8,0,12-2.8,13.4-11.3c0.3-1.8,0-3.4-0.9-4.5c-0.8-1.1-2.2-1.7-3.9-1.9c-1.5-0.1-3.1-0.2-5-0.2
					c-1.6,0-3.2,0-4.6,0.1c-0.1,0-0.4,0.2-0.5,0.4c-0.9,4.8-1.6,9.6-2.5,14.7l-0.4,2.7L171.1,141.3z"/>
				<path fill="#FFFFFF" d="M175.8,113.5c3.5,0,7.1,0.1,10.5,0.4c8.9,0.8,13.1,8.4,11.1,18.4c-2.2,11.5-10.9,18.8-22.6,18.8
					c0,0,0,0,0,0c0,0-0.1,0-0.1,0c-1.8,0-3.7,0-5.5,0c-1.3,0-2.6,0-3.9-0.1c-0.1,0-0.3,0-0.4,0c-1.7,0-2.7,0.4-2.9,2.6
					c-0.3,3-1.2,6-1.7,9c-0.2,1.6-0.8,2.3-2.4,2.3c-0.1,0-0.2,0-0.3,0c-1.1-0.1-2.3-0.1-3.5-0.1c-1.7,0-3.5,0-5.4,0
					c3.5-17.4,6.8-34.4,10.2-51.2C164.7,113.8,170.3,113.5,175.8,113.5 M169,142.8c0.7,0,1.4,0,2.1,0c9.5,0,13.4-3.4,14.8-12.6
					c0.7-4.4-1.7-7.7-6.1-8.1c-1.7-0.2-3.4-0.2-5.1-0.2c-1.5,0-3.1,0-4.6,0.1c-0.7,0-1.8,0.9-1.9,1.5c-1.1,6.3-2.1,12.6-3.2,19.4
					C166.5,142.8,167.8,142.8,169,142.8 M175.8,110.5c-2.8,0-5.6,0.1-8.3,0.1c-2.8,0.1-5.6,0.1-8.4,0.1h-2.5l-0.5,2.4l-6.2,31.3
					l-3.9,19.8l-0.7,3.6h3.7c1,0,2,0,2.9,0c0.9,0,1.7,0,2.5,0c1.3,0,2.4,0,3.3,0.1c0.1,0,0.3,0,0.4,0c1.7,0,4.7-0.6,5.3-4.9
					c0.2-1.2,0.4-2.4,0.7-3.7c0.4-1.7,0.7-3.5,0.9-5.3c0.1,0,0.2,0,0.3,0c1.2,0,2.4,0.1,4,0.1c0.9,0,1.9,0,2.8,0c0.9,0,1.8,0,2.7,0
					h0.1c13.1,0,23.1-8.3,25.6-21.2c1.2-6.4,0.2-12.2-2.8-16.2c-2.6-3.4-6.4-5.4-11-5.8C183.4,110.7,180,110.5,175.8,110.5
					L175.8,110.5z M171,124.9c1.2,0,2.5-0.1,3.8-0.1c1.8,0,3.4,0.1,4.8,0.2c0.9,0.1,2.1,0.4,2.8,1.3c0.8,1,0.8,2.4,0.6,3.4
					c-1.2,7.8-3.9,10.1-11.9,10.1l-2.1,0l-0.5,0c0.1-0.3,0.1-0.7,0.2-1C169.4,134,170.2,129.4,171,124.9L171,124.9z"/>
			</g>
			<g>
				<path d="M241.8,166.4c-0.8,0-1.7,0-2.5,0c-0.9,0-1.7,0-2.6,0h-1.8l10.8-54.5h1.2c2.6,0,5.1,0,7.7-0.1c2.5,0,5-0.1,7.5-0.1
					c3.6,0,6.6,0.1,9.4,0.3c5.8,0.4,10.3,2.4,13,6c2.8,3.7,3.6,9,2.2,15.3c-2.6,11.9-11.7,19.3-23.9,19.3c0,0,0,0,0,0c-1,0-2,0-3,0
					c-1,0-2,0-2.9,0c-1.4,0-2.8,0-4.2,0l-0.2,0c-0.8,0-0.9,0-1,0.9c-0.5,3.3-1.1,6.6-1.9,9.7c-0.3,1.3-1.9,3-3.4,3.1
					C244.9,166.4,243.6,166.4,241.8,166.4z M259.4,141.3c8.2,0,11.9-3.2,13-11.4c0.3-1.8-0.1-3.4-1-4.5c-0.8-1.1-2.2-1.7-3.9-1.8
					c-1.5-0.1-3.1-0.2-5-0.2c-1.6,0-3.2,0.1-4.5,0.1c-0.2,0.1-0.4,0.3-0.5,0.4c-0.9,4.8-1.7,9.6-2.5,14.7l-0.4,2.7L259.4,141.3z"/>
				<path fill="#FFFFFF" d="M262.1,113.3c3.1,0,6.2,0.1,9.3,0.3c11.4,0.7,16.3,8,13.8,19.4c-2.4,11.2-11,18.2-22.4,18.2c0,0,0,0,0,0
					c-2,0-3.9,0-5.9,0c-1.4,0-2.8,0-4.2,0c-0.1,0-0.1,0-0.2,0c-1.5,0-2.3,0.5-2.5,2.2c-0.5,3.2-1.1,6.4-1.9,9.6
					c-0.2,0.8-1.3,1.9-2,2c-1.4,0.1-2.8,0.1-4.2,0.1c-1.7,0-3.4,0-5.1,0c3.4-17.3,6.8-34.3,10.2-51.5
					C252,113.4,257.1,113.3,262.1,113.3 M257.2,142.8c0.8,0,1.5,0,2.2,0c9,0,13.2-3.7,14.5-12.7c0.6-4.5-1.7-7.7-6.2-8.1
					c-1.7-0.1-3.4-0.2-5.1-0.2c-1.5,0-3.1,0-4.6,0.1c-0.7,0-1.7,0.9-1.8,1.5c-1.1,6.3-2.1,12.5-3.2,19.3
					C254.5,142.8,255.9,142.8,257.2,142.8 M262.1,110.3c-2.5,0-5.1,0-7.5,0.1c-2.5,0-5.1,0.1-7.6,0.1h-2.5l-0.5,2.4l-2.6,13.1
					l-7.6,38.4l-0.7,3.6h3.7c0.9,0,1.8,0,2.6,0c0.9,0,1.7,0,2.5,0c1.8,0,3.1,0,4.4-0.1c2.2-0.2,4.2-2.3,4.7-4.2
					c0.8-3.1,1.4-6.3,1.9-9.5c1.2,0,2.5,0,4,0c1,0,2,0,3,0c1,0,1.9,0,2.9,0c12.7,0,22.7-8.1,25.4-20.5c1.4-6.7,0.6-12.4-2.5-16.5
					c-2.9-3.9-7.8-6.2-14.1-6.5C268.7,110.3,265.7,110.3,262.1,110.3L262.1,110.3z M258.8,124.9c1.1,0,2.4-0.1,3.7-0.1
					c1.8,0,3.4,0.1,4.8,0.2c0.9,0.1,2.1,0.4,2.8,1.3c0.8,1,0.8,2.4,0.7,3.4c-1,7.4-4,10.1-11.5,10.1c-0.7,0-1.5,0-2.2,0l-0.8,0
					c0.1-0.3,0.1-0.7,0.2-1C257.3,134,258,129.4,258.8,124.9L258.8,124.9z"/>
			</g>
			<g>
				<path d="M201.9,152.7c-1.1,0-2.1-0.1-3.2-0.1c-1.1-0.1-2.1-0.1-3.2-0.1h-1.8l1.6-8.4c0.9-4.9,1.9-9.7,2.8-14.6
					c0.6-3.1,1.2-6.1,1.8-9.2c1.2-6,2.5-12.2,3.6-18.3c0.3-1.8,1.1-3.8,4.2-3.8c0.1,0,0.3,0,0.4,0c0.9,0,2,0.1,3.2,0.1
					c0.8,0,1.6,0,2.5,0c0.9,0,1.8,0,2.8,0h1.8l-2.5,13.6c0.5,0,1,0,1.5,0c1.1,0,2.1,0,3.2,0c1.6,0,3,0,4.2,0.1c2.8,0.2,6,0.5,9,1.5
					c5.4,1.8,7.8,6,6.8,11.8c-1,6.1-2.1,12.1-3.2,18.2l-1.6,9h-14.7l1.6-8.8c1.1-5.7,2.1-11.3,3.1-16.9c0.2-1.3,0.2-2.2-0.2-2.6
					c-0.4-0.5-1.6-0.7-2.4-0.7c-1.2,0-2.5-0.1-4.2-0.1c-1.1,0-2.2,0-3.3,0c-0.8,0-1.6,0-2.4,0l-3.8,18.5c0,0.2-0.1,0.4-0.1,0.6
					c-0.1,0.4-0.1,0.7-0.2,1c-0.2,0.7-0.3,1.7-0.5,2.6c-0.4,2.7-0.8,5.2-2.6,5.9C205.2,152.5,203.8,152.7,201.9,152.7z"/>
				<path fill="#FFFFFF" d="M207.8,99.7c0.1,0,0.2,0,0.3,0c1.1,0.1,2.2,0.1,3.3,0.1c1.7,0,3.4,0,5.2,0c-0.9,4.7-1.6,8.9-2.5,13.6
					c2.3,0,4.4-0.1,6.5-0.1c1.4,0,2.7,0,4.1,0.1c2.9,0.2,5.9,0.5,8.6,1.4c4.8,1.6,6.7,5.1,5.8,10.1c-1.5,8.6-3,17.2-4.5,25.9
					c-3.8,0-7.7,0-11.6,0c1.5-8,3-16,4.5-23.9c0.6-3.5-0.5-5-4-5.1c-1.4,0-2.8-0.1-4.2-0.1c-2.2,0-4.5,0-6.9,0
					c-1.3,6.6-2.7,13.1-4,19.7c-0.1,0.5-0.2,1-0.3,1.5c-0.7,2.6-0.7,6.9-2.2,7.5c-1.2,0.5-2.6,0.6-4.1,0.6c-2,0-4.2-0.3-6.4-0.3
					c1.4-7.2,2.7-14.2,4.1-21.2c1.8-9.2,3.7-18.3,5.4-27.5C205.4,100.4,206.1,99.7,207.8,99.7 M207.8,96.7c-3.1,0-5,1.7-5.7,5
					c-1.1,6.1-2.4,12.3-3.6,18.2c-0.6,3.1-1.2,6.1-1.9,9.2c-1,4.8-1.9,9.6-2.8,14.6c-0.4,2.2-0.9,4.4-1.3,6.6l-0.7,3.6h3.6
					c1,0,2,0.1,3.1,0.1c1.1,0.1,2.2,0.1,3.3,0.1c2.1,0,3.7-0.3,5.2-0.8c2.6-1,3.1-4.1,3.5-7.1c0.1-0.9,0.3-1.8,0.4-2.4
					c0.1-0.4,0.2-0.8,0.2-1.2c0-0.2,0.1-0.3,0.1-0.5c1.1-5.2,2.1-10.5,3.2-15.7l0.3-1.5c0.4,0,0.8,0,1.1,0c1.1,0,2.2,0,3.3,0
					c1.6,0,2.9,0,4.1,0.1c0.7,0,1.1,0.1,1.3,0.2c0,0.2,0,0.6-0.1,1.4c-1,5.6-2.1,11.4-3.2,16.9l-1.3,7l-0.7,3.6h3.6h11.6h2.5
					l0.4-2.5c0.5-2.6,0.9-5.2,1.4-7.8c1-6,2.1-12.1,3.2-18.2c1.1-6.5-1.7-11.5-7.8-13.5c-3.2-1.1-6.5-1.4-9.4-1.6
					c-1.3-0.1-2.6-0.1-4.3-0.1c-1,0-1.9,0-2.9,0l1.7-9l0.2-1l0.7-3.5h-3.6c-1,0-1.9,0-2.8,0c-0.8,0-1.6,0-2.4,0
					c-1.2,0-2.2,0-3.1-0.1C208.1,96.7,207.9,96.7,207.8,96.7L207.8,96.7z"/>
			</g>
		</g>
	</g>
	<g>
		<path fill="#FFFFFF" d="M538.5,88.3c5.6-1,13.6-1.7,24.7-1.7c11.3,0,19.3,2.2,24.7,6.5c5.2,4.1,8.6,10.8,8.6,18.7
			c0,7.9-2.6,14.6-7.4,19.2c-6.2,5.9-15.5,8.5-26.3,8.5c-2.4,0-4.6-0.1-6.2-0.4v28.9h-18.1V88.3z M556.6,125
			c1.6,0.4,3.5,0.5,6.1,0.5c9.7,0,15.7-4.9,15.7-13.2c0-7.4-5.2-11.9-14.3-11.9c-3.7,0-6.2,0.4-7.6,0.7V125z"/>
		<path fill="#FFFFFF" d="M626.6,87.2v31.1h30.1V87.2h18.2v80.9h-18.2v-33.8h-30.1v33.8h-18.4V87.2H626.6z"/>
		<path fill="#FFFFFF" d="M690.9,88.3c5.6-1,13.6-1.7,24.7-1.7c11.3,0,19.3,2.2,24.7,6.5c5.2,4.1,8.6,10.8,8.6,18.7
			c0,7.9-2.6,14.6-7.4,19.2c-6.2,5.9-15.5,8.5-26.3,8.5c-2.4,0-4.6-0.1-6.2-0.4v28.9h-18.1V88.3z M709,125c1.6,0.4,3.5,0.5,6.1,0.5
			c9.7,0,15.7-4.9,15.7-13.2c0-7.4-5.2-11.9-14.3-11.9c-3.7,0-6.2,0.4-7.6,0.7V125z"/>
		<path fill="#FFFFFF" d="M818.6,104.3v26.2h25.1v11.3h-25.1v26.4h-11.8v-26.4h-25.1v-11.3h25.1v-26.2H818.6z"/>
		<path fill="#FFFFFF" d="M606.9,281.1c-0.4-9.7-0.7-21.5-0.7-33.2h-0.4c-2.5,10.3-5.9,21.8-9,31.3l-9.8,31.6h-14.3l-8.6-31.3
			c-2.6-9.5-5.4-21-7.3-31.6h-0.2c-0.5,10.9-0.8,23.4-1.4,33.5l-1.4,30.7h-16.9l5.2-80.9h24.4l7.9,27c2.5,9.4,5,19.4,6.8,28.9h0.4
			c2.3-9.4,5-20,7.7-29l8.6-26.9h23.9l4.4,80.9h-17.9L606.9,281.1z"/>
		<path fill="#FFFFFF" d="M653.1,253.4l8.8,28.8c1,3.5,2.2,7.8,2.9,10.9h0.4c0.8-3.1,1.8-7.6,2.6-10.9l7.2-28.8h19.6l-13.7,38.6
			c-8.4,23.3-14,32.6-20.6,38.5c-6.4,5.5-13.1,7.4-17.6,8l-3.8-15.5c2.3-0.4,5.2-1.4,7.9-3.1c2.8-1.4,5.8-4.3,7.6-7.3
			c0.6-0.8,1-1.8,1-2.6c0-0.6-0.1-1.6-0.8-3l-21.5-53.6H653.1z"/>
		<path fill="#FFFFFF" d="M703.4,293.3c4.9,2.5,12.5,5,20.3,5c8.4,0,12.8-3.5,12.8-8.8c0-5-3.8-7.9-13.6-11.4
			c-13.4-4.7-22.2-12.1-22.2-23.9c0-13.8,11.5-24.4,30.6-24.4c9.1,0,15.8,1.9,20.6,4.1l-4.1,14.8c-3.2-1.6-9-3.8-16.9-3.8
			c-7.9,0-11.8,3.6-11.8,7.8c0,5.2,4.6,7.4,15,11.4c14.3,5.3,21,12.7,21,24.1c0,13.6-10.4,25.1-32.6,25.1c-9.2,0-18.4-2.4-22.9-4.9
			L703.4,293.3z"/>
		<path fill="#FFFFFF" d="M836.7,326c-11.5-3.4-21.1-6.8-31.9-11.4c-1.8-0.7-3.7-1.1-5.6-1.2c-18.2-1.2-35.3-14.6-35.3-41
			c0-24.2,15.4-42.5,39.5-42.5c24.7,0,38.3,18.7,38.3,40.8c0,18.4-8.5,31.3-19.2,36.1v0.5c6.2,1.8,13.2,3.2,19.6,4.6L836.7,326z
			 M822.3,271.4c0-14.8-7-27-19.4-27s-19.7,12.2-19.7,27.4c-0.1,15.4,7.3,27.1,19.6,27.1C815.1,298.9,822.3,287.3,822.3,271.4z"/>
		<path fill="#FFFFFF" d="M853.6,231.2H872v65.5h32.2v15.4h-50.5V231.2z"/>
	</g>
</g>
</svg>
