<?xml version="1.0" encoding="utf-8"?>
<!-- Generator: Adobe Illustrator 18.0.0, SVG Export Plug-In . SVG Version: 6.00 Build 0)  -->
<!DOCTYPE svg PUBLIC "-//W3C//DTD SVG 1.1//EN" "http://www.w3.org/Graphics/SVG/1.1/DTD/svg11.dtd">
<svg version="1.1" id="Layer_1" xmlns="http://www.w3.org/2000/svg" xmlns:xlink="http://www.w3.org/1999/xlink" x="0px" y="0px"
	 viewBox="0 0 351.7 108" enable-background="new 0 0 351.7 108" xml:space="preserve">
<g>
	<g>
		<path fill="#CCCCCC" d="M40.3,21.4C39,26.8,37.4,31,35.6,34c-0.8,1.4-1.6,2-2.4,2c-0.4,0-0.7-0.1-1.1-0.2
			c-2.2-0.6-3.1-1.4-3.1-2.3c0-0.5,0.2-0.7,0.8-0.8c2.4-3.7,3.8-8,4.3-13.2c-1.6-1.3-3-2-4.3-2c-2.9,0-6.4,2.5-10.3,7.7
			c-3.6,4.8-6.8,10.4-9.5,17c-2.8,6.7-4.2,12.5-4.1,17c0,2.6,0.8,4.7,2.4,5.9c1.2,1,2.4,1.4,3.8,1.4c0.8,0,1.8-0.1,2.9-0.5
			c2.6-0.8,5.8-2.4,9.2-4.8c3.4-2.3,6.1-4.6,8.4-7c0.7-0.7,1.1-1.7,1.2-2.9c0.1-0.6,0.4-1,0.8-1c0.4,0,0.7,0.2,0.8,0.7
			c1,2.5,1.6,4.2,1.6,5.3c0,1-0.4,1.8-1.1,2.6c-0.5,0.5-1.7,1.4-3.6,2.9c-5.9,4.4-10.9,7.2-15.2,8.3c-1.3,0.4-2.5,0.5-3.6,0.5
			c-2.3,0-4.1-0.7-5.3-2.3c-5.4-2-8.2-5.2-8.2-9.4c0-6.7,1.8-14,5.3-21.7c3-6.7,6.8-12.6,11.3-17.8c4.3-4.9,7.8-7.4,10.4-7.6
			c1-0.1,2.2,0.4,3.4,1.2c0.1,0.1,1.4,1.2,3.8,3.1c0.1-1.1,0.5-1.7,1.1-1.7c0.7,0,1.8,0.6,3.4,1.8c1,0.7,1.6,1.6,1.6,2.3
			C40.7,19.3,40.6,20.1,40.3,21.4z"/>
		<path fill="#CCCCCC" d="M67.9,43.2c0,2.5-0.6,5.8-1.8,9.8c-1.8,6.5-4.3,11.5-7.7,15c-1.8,1.9-3.7,2.9-5.9,2.9
			c-0.8,0-1.9-0.2-3.2-0.6c-2.6-0.1-4.8-1-6.4-2.5c-1.8-1.6-2.6-3.7-2.5-6.2c0.1-3,1.1-7.1,3-12.4c2.2-5.8,4.3-10,6.6-12.5
			c1.1-1.2,1.9-1.8,2.6-1.8c1,0,2.5,1,4.6,2.9c0.6-0.2,1.8-0.8,3.6-1.6c1-0.4,1.6-0.5,2-0.5c1.1,0,2.3,1,3.6,3
			C67.6,40.2,68,41.6,67.9,43.2z M63.1,44.4c0.2-1.9,0.2-3,0.2-3.6c0-1.2-0.4-1.8-1.1-1.8c-0.2,0-0.6,0-1.1,0.1l-6.5,2.6
			c-0.7,0.4-1.2,0.5-1.3,0.5c-0.2,0-0.5-0.2-0.7-0.8c-1.6,1.9-3.1,4.8-4.6,8.5c-1.1,2.9-1.8,5.5-2.3,7.8c-0.4,1.6-0.5,3-0.5,4.3
			c0,4.3,1.3,6.4,4,6.2c1.1,0,2.2-0.5,3.5-1.2c2.3-1.6,4.6-4.8,6.6-9.5C61.6,53.1,62.8,48.7,63.1,44.4z"/>
		<path fill="#CCCCCC" d="M122.5,4.8c0.4,0.2,0.5,0.5,0.5,0.8c0,0.5-0.4,0.8-1,0.8c-0.2,0-0.5-0.1-0.8-0.2c-1.3-0.6-2.3-1-2.9-1
			c-1.7,0-3.6,1.7-5.8,5c-7.7,12.5-13.2,29.2-16.8,49.9c0.7-0.7,1.7-1.8,2.9-3.2c0.7-0.8,1.2-1.3,1.6-1.3c0.7,0,0.8,0.5,0.2,1.3
			c-2.6,3.7-4.4,7.7-5.3,12c-0.4,1.1-0.7,1.6-1.2,1.6c-0.2,0-0.6-0.1-1-0.4c-1.4-1-2.2-1.6-2.3-1.7c-0.6-0.5-0.8-1.2-0.8-2.2
			c0-0.5,0.1-1.1,0.2-1.7c1.2-6.5,2.2-11.3,3-14.4c-2.8,4-5.8,7.8-9.2,11.8c-3.5,4-5.9,6.4-7.4,7.4c-1.2,0.8-2,1.2-2.6,1.2
			c-0.5,0-1.3-0.4-2.3-1.2c-1.8-1.1-2.8-2.4-2.8-3.8c0-0.2,0-0.5,0.1-0.8c0.6-4.2,2.4-9,5.5-14.4c3.1-5.5,6.7-10.1,10.8-13.8
			c1.3-1.2,2.5-1.8,3.5-1.8c1.1,0,3,1.3,5.8,4c0.2,0.2,0.4,0.5,0.4,0.7c0,0.5-0.2,0.7-0.8,0.7c-0.2,0-0.4,0-0.6-0.1
			c-1.9-0.8-3.5-0.8-4.8,0.1C86,42,83.1,45.4,80,50.3c-3.6,5.5-5.8,10.6-6.5,15c-0.2,1,0,1.4,0.7,1.4c1,0,2-0.6,3.4-1.9
			c3.1-3,6.4-6.8,10-11.4c3.6-4.8,6-8.4,7-10.8c0.6-1.3,1.1-2.6,1.3-3.8c2.9-10.2,6.1-19,9.7-26.3c2.8-5.6,5.3-9.5,7.3-11.4
			c0.7-0.7,1.6-1.1,2.3-1.1c0.7,0,1.8,0.5,3,1.3C119.6,2.5,121.1,3.6,122.5,4.8z"/>
		<path fill="#CCCCCC" d="M136,40.6c-3.8,17.9-7.6,31.2-10.9,40.1c-6.6,17.2-14.2,25.8-22.7,25.8c-5,0-10.3-2.8-16.1-8.2
			c-0.5-0.5-0.7-1-0.7-1.6c0-0.8,0.4-1.2,1.2-1.2c0.4,0,0.7,0.1,1.1,0.5c4.6,3.8,8.6,5.8,12.1,5.8c6.6,0,12.5-5.4,17.9-16.3
			c4.2-8.5,7.9-20,11-34.4c0.2-1.1,0.5-2.6,1-4.7c-2.9,4.8-6.2,9.5-9.8,14c-3.5,4.4-6.2,7.6-8.3,9.2c-1.1,1-2,1.3-2.6,1.3
			c-0.5,0-1.1-0.2-1.7-0.8c-0.6-0.7-1.2-1.4-1.8-2.2c-0.2-0.4-0.4-0.6-0.4-1c0,0,0,0,0-0.1c0-0.4,0.4-0.6,0.7-0.7
			c1.3-1.8,2.6-5.8,3.7-11.8c0.8-4.7,1.6-9.2,1.8-13.4c0-1-0.1-1.6-0.4-1.6c-0.1,0-0.7,0.5-1.9,1.6c-1.9,1.7-3,2.5-3.1,2.5
			c-0.4,0-0.6-0.2-0.6-0.6c0-0.2,0.1-0.4,0.2-0.6c0.5-0.6,1.6-2,3.1-4.4c1.4-2,2.5-3.1,3-3.1c0.4,0,1,0.1,1.6,0.5
			c1.4-0.2,2.2-0.4,2.4-0.4c1,0,1.4,0.7,1.4,2.2c0,2.4-0.7,7.2-2,14.3c-1.4,7.1-2.5,11.6-3.5,13.7c2.8-2.2,6.4-6.5,10.9-13
			c4.3-6.2,7.1-11,8.2-14.2c0-1.9,0.5-2.8,1.2-2.8c0.6,0,1.7,0.6,3.2,1.8C136.1,37.5,136.3,38.8,136,40.6z"/>
		<path fill="#CCCCCC" d="M242.4,30.1c0.4,0.4,0.5,0.7,0.5,1.2c0,0.8-0.4,1.2-1.1,1.2c-0.2,0-0.4-0.1-0.6-0.2
			c-0.6-0.5-1.3-1.1-2.2-1.7c-4.8,17.8-10.7,30.5-17.5,38.3c-0.7,0.8-1.7,1.2-2.9,1.2s-2.4-0.4-3.7-1c-3.8-1.2-6.6-2.3-8.2-3.6
			c-2.2-1.8-3.4-4.4-3.6-8c-0.1-1.1-0.1-2.2-0.1-3.4c0-7.8,1.1-15.8,3.4-24.2c-3.1,3.2-6.5,7.6-10.2,12.8
			c-4.3,6.1-7.4,11.2-9.1,15.1c-1.8,4.2-3,6.7-3.7,7.8c-0.6,0.8-1.6,1.6-2.9,2.2c-2.3,1.1-3.7,1.7-4.6,1.7c-0.6,0-0.8-0.2-0.8-0.7
			c0-0.4,0.1-1,0.5-1.7c2.9-6.1,5.8-14.4,8.6-25c2.9-10.6,4.3-18.1,4.3-22.7c0-0.7,0-1.3-0.1-1.8c-2.9,0.7-6.4,1.9-10.4,3.8
			c-3.8,1.8-7.1,3.6-9.7,5.3c-1.4,1-2.2,2.3-2.2,3.8c0,1.1,0.2,2.2,0.8,3.5c0.1,0.2,0.2,0.5,0.2,0.7c0,0.5-0.2,0.7-0.7,0.7
			s-1-0.2-1.4-0.8c-3.4-4.2-5-7-4.9-8.2c0.1-1.4,1.8-3.1,5.3-4.9c2.5-1.3,6.1-2.8,10.9-4.3c4.9-1.6,8-2.8,9.4-3.4
			c0.1-0.4,0.2-0.8,0.4-1.2c0.2-0.6,0.7-1,1.3-1c1,0,2.5,0.8,4.7,2.4c1.8,1.3,2.6,2.9,2.6,4.8c0,0.5-0.1,1.4-0.2,2.9
			c-0.2,2.2-1.2,6.4-2.9,12.8c-1.6,6-3,10.8-4.2,14.4c2.4-3.5,6.4-8.9,11.8-16c5.3-6.8,8.3-10.8,9.2-11.6c0.8-3.2,1.4-5.3,1.8-5.9
			c0.6-1.4,1.6-2.2,2.6-2.2c0.4,0,0.7,0.1,1.2,0.2c3.1,1,4.6,1.9,4.6,2.8c0,0.5-0.4,1.1-1,1.8l-2.9,3l0,0
			c-3.8,12.5-5.8,22.8-5.8,31.2c0,1.2,0,2.3,0.1,3.5c0.1,2.9,0.8,5.3,2,7.2s2.6,2.8,4.3,2.8c1.9,0,3.7-1.2,5.3-3.4
			c2.8-3.8,5.6-9.1,8.5-16c3.4-7.7,5.5-14.5,6.5-20.4c-1.3-1.6-1.9-3.6-1.9-6.4c0-2.3,0.5-5,1.3-8.4c0.5-1.8,1.2-2.8,2.2-2.8
			s2,0.8,3.4,2.3c1,1.2,1.4,2.5,1.4,4.1c0,1-0.8,4.9-2.4,11.8C240.2,27.8,241.1,28.6,242.4,30.1z"/>
		<path fill="#CCCCCC" d="M268.7,41.7c-2.5,7.1-4.3,13.1-5.3,17.9c0.4-0.4,1-1,1.7-1.8s1.1-1.3,1.3-1.4c0.4-0.5,0.8-0.7,1.2-0.7
			s0.6,0.2,0.6,0.6c0,0.2-0.1,0.6-0.4,0.8c-2.6,3.8-4.3,7.8-5.3,11.8c-0.2,1.1-0.6,1.7-1.1,1.7s-1.3-0.5-2.6-1.3
			c-0.7-0.5-1.2-1-1.3-1.2c-0.1-0.4-0.1-1,0-1.8c1.2-7.1,2.6-13,4.4-17.6c-2.4,4-5.8,8.3-10,13.1c-3.6,4.2-6.2,6.8-7.9,7.9
			c-1.2,0.8-2,1.2-2.6,1.2c-0.5,0-1.3-0.4-2.3-1.2c-1.4-0.8-2.2-2.2-2.2-3.7c0-0.4,0-0.6,0.1-1.1c0.5-4.1,2.3-8.9,5.4-14.4
			c3.1-5.5,6.7-10.1,10.7-13.8c1.3-1.2,2.5-1.8,3.5-1.8c1,0,2.9,1.3,5.8,4c0.2,0.2,0.4,0.5,0.4,0.7c0,0.5-0.2,0.7-0.8,0.7
			c-0.2,0-0.5,0-0.6-0.1c-1.9-0.8-3.6-0.8-4.8,0.1c-2.6,1.9-5.5,5.3-8.6,10.2c-3.7,5.5-5.9,10.6-6.6,15c0,0.2,0,0.4,0,0.6
			c0,0.7,0.2,1.1,0.8,1.1c1,0,2-0.6,3.4-1.9c3.1-3,6.5-6.8,10.1-11.4c3.6-4.8,6-8.4,7-10.8c0.7-1.8,1.2-3,1.4-3.7
			c0.4-1.2,0.7-1.9,1.2-1.9c0.4,0,1.4,0.6,2.9,1.7c0.6,0.5,1,1,1.1,1.3C269.2,40.3,269,40.9,268.7,41.7z"/>
		<path fill="#CCCCCC" d="M299.3,38.1c0,3.6-0.5,7.1-1.4,10.4c-0.4,1-0.7,1.6-1.2,1.6c-0.4,0-1.2-0.6-2.6-1.7
			c-0.7-0.6-0.8-1.3-0.5-2.4c0.7-2.5,1.2-4.6,1.2-6.1c0-0.5-0.1-0.8-0.4-0.8c-0.4,0-0.8,0.5-1.7,1.6c-5.8,7.6-10.1,16-13,25.4
			c-1,3-1.7,4.4-2.3,4.4c-0.2,0-1.3-0.5-3.4-1.4c-1-0.5-1.3-1.4-1-2.8c2.2-9.6,4.6-17.8,7.1-24.4c-2,2.2-3.4,3.7-4,4.4
			c-0.2,0.4-0.5,0.5-1,0.5s-0.7-0.2-0.7-0.6c0-0.2,0.1-0.5,0.4-0.8c1.3-1.7,3.2-4.2,5.5-7.6c0.7-1.2,1.4-1.8,2-1.8
			c0.5,0,1.6,0.4,3,1.2c0.8,0.5,1,1.1,0.4,1.8c-0.6,0.8-1.8,3.7-3.5,8.5c-1.6,4.8-2.8,8.5-3.4,11.2c3.8-8.4,8-15.8,13-22.3
			c1-1.2,1.7-1.8,2.2-1.8s1.2,0.4,2,1c1.2,0.1,1.9,0.4,2.2,0.6C299,36.4,299.3,37.2,299.3,38.1z"/>
		<path fill="#CCCCCC" d="M351.2,4.8c0.4,0.2,0.5,0.5,0.5,0.8c0,0.5-0.4,0.8-1,0.8c-0.2,0-0.5-0.1-0.8-0.2c-1.3-0.6-2.3-1-2.9-1
			c-1.7,0-3.6,1.7-5.8,5c-7.7,12.5-13.2,29.2-16.8,49.9c0.7-0.7,1.7-1.8,2.9-3.2c0.7-0.8,1.2-1.3,1.6-1.3c0.7,0,0.8,0.5,0.2,1.3
			c-2.6,3.7-4.4,7.7-5.3,12c-0.4,1.1-0.7,1.6-1.2,1.6c-0.2,0-0.6-0.1-1-0.4c-1.4-1-2.2-1.6-2.4-1.7c-0.6-0.5-0.8-1.2-0.8-2.2
			c0-0.5,0.1-1.1,0.2-1.7c1.2-6.5,2.2-11.3,3-14.4c-2.8,4-5.8,7.8-9.2,11.8c-3.5,4-5.9,6.4-7.4,7.4c-1.2,0.8-2,1.2-2.6,1.2
			c-0.5,0-1.3-0.4-2.3-1.2c-1.8-1.1-2.8-2.4-2.8-3.8c0-0.2,0-0.5,0.1-0.8c0.6-4.2,2.4-9,5.5-14.4c3.1-5.5,6.7-10.1,10.8-13.8
			c1.3-1.2,2.5-1.8,3.5-1.8c1.1,0,3,1.3,5.8,4c0.2,0.2,0.4,0.5,0.4,0.7c0,0.5-0.2,0.7-0.8,0.7c-0.2,0-0.4,0-0.6-0.1
			c-1.9-0.8-3.5-0.8-4.8,0.1c-2.6,1.9-5.5,5.3-8.6,10.2c-3.6,5.5-5.8,10.6-6.5,15c-0.1,1.1,0.1,1.6,0.8,1.6c1,0,2-0.6,3.4-1.9
			c3.1-3,6.5-6.8,10-11.4c3.6-4.8,6-8.4,7-10.8c0.6-1.3,1.1-2.6,1.3-3.8c2.9-10.2,6.1-19,9.7-26.3c2.8-5.6,5.3-9.5,7.3-11.4
			c0.7-0.7,1.6-1.1,2.3-1.1c0.7,0,1.8,0.5,3,1.3C348.5,2.5,349.9,3.6,351.2,4.8z"/>
	</g>
</g>
<g>
	<g>
		<path fill="#999999" d="M130.8,75.3c0.5,0,1.1-0.1,1.7-0.1c0.6,0,1.3-0.1,1.9-0.1c0.7,0,1.3-0.1,2-0.1s1.3,0,2,0
			c1.7,0,3.2,0.2,4.7,0.6c1.4,0.5,2.6,1.1,3.6,1.9s1.8,1.9,2.3,3.4c0.5,1.3,0.8,2.9,0.8,4.7s-0.2,3.5-0.7,4.9
			c-0.5,1.6-1.2,2.8-2.3,3.8c-1,1.1-2.3,1.9-3.7,2.5s-3.2,1-5.2,1c-1.3,0-2.6,0-3.8-0.1c-1.3-0.1-2.4-0.1-3.4-0.2
			C130.8,97.4,130.8,75.3,130.8,75.3z M133.9,95.8c0.5,0.1,1,0.1,1.6,0.2c0.6,0,1.2,0.1,1.9,0.1c1.4,0,2.6-0.1,3.8-0.4
			c1.1-0.2,2-0.6,2.8-1.1c0.4-0.2,0.7-0.6,1.1-1c0.4-0.5,0.6-1,1-1.7c0.2-0.7,0.5-1.6,0.6-2.5c0.1-1,0.2-2.2,0.2-3.6
			c0-1.7-0.2-3.2-0.7-4.4s-1.2-2.2-2-2.9s-1.8-1.2-2.9-1.6c-1.1-0.4-2.3-0.5-3.5-0.5c-0.5,0-1,0-1.3,0s-0.6,0-1,0
			c-0.2,0-0.5,0-0.7,0.1c-0.2,0-0.5,0-0.7,0.1v19L133.9,95.8L133.9,95.8z"/>
		<path fill="#999999" d="M156.1,74.8l2,2l-2,2l-2-2L156.1,74.8z M154.7,97.5v-15h3v15H154.7z"/>
		<path fill="#999999" d="M166.7,108c-1,0-1.7-0.1-2.3-0.2c-0.6-0.1-1.1-0.4-1.6-0.7c-0.4-0.2-0.7-0.6-0.8-1.1
			c-0.1-0.4-0.2-0.8-0.2-1.2s0-0.7,0.1-1.1c0.1-0.4,0.2-0.6,0.4-1c0.1-0.4,0.4-0.6,0.6-0.8c0.2-0.2,0.4-0.5,0.6-0.7l0.7,0.2
			c-0.1,0.4-0.2,0.8-0.4,1.1c-0.1,0.4-0.1,0.7-0.1,1.1c0,0.8,0.4,1.4,1,1.9s1.4,0.7,2.4,0.7s1.9-0.1,2.8-0.2c0.8-0.2,1.6-0.5,2.2-1
			c0.4-0.2,0.7-0.7,0.8-1.2c0.2-0.5,0.2-1.1,0.2-1.7c0-0.7-0.2-1.3-0.7-1.7s-1.3-0.5-2.4-0.5h-2.4c-1.7,0-3-0.2-3.7-0.7
			s-1.2-1.2-1.2-2.2c0-0.2,0.1-0.6,0.2-0.8c0.1-0.4,0.2-0.6,0.5-0.8c0.2-0.2,0.4-0.6,0.6-0.8c0.2-0.2,0.5-0.5,0.7-0.7
			c-0.8-0.5-1.4-1.1-1.9-1.9s-0.7-2.3-0.7-3.5c0-1,0.1-1.8,0.5-2.5c0.2-0.7,0.7-1.4,1.2-1.9s1.2-1,1.9-1.2s1.6-0.5,2.4-0.5
			c0.7,0,1.3,0,1.9,0.1c0.6,0.1,1.1,0.2,1.6,0.4c0.7,0,1.4-0.1,2.3-0.1c0.8-0.1,1.4-0.2,2-0.4l-0.4,1.6c-0.4,0.1-0.7,0.2-1.2,0.2
			c-0.5,0.1-1,0.1-1.3,0.1c0.2,0.5,0.5,1,0.6,1.6s0.2,1.4,0.2,2.4s-0.1,1.8-0.5,2.5s-0.7,1.3-1.3,1.8s-1.2,0.8-1.9,1.1
			c-0.7,0.2-1.6,0.4-2.4,0.4c-0.2,0-0.6,0-1.1,0c-0.4,0-0.7-0.1-1-0.1c-0.1,0.2-0.2,0.5-0.4,0.8s-0.1,0.7-0.1,1.1
			c0,0.5,0.2,0.7,0.6,1c0.5,0.1,1,0.2,1.6,0.2h3.2c1,0,1.8,0.1,2.4,0.2c0.7,0.1,1.2,0.4,1.6,0.7c0.4,0.4,0.7,0.7,0.8,1.2
			s0.2,1.1,0.2,1.8c0,0.8-0.2,1.7-0.7,2.5s-1.1,1.6-1.9,2.3s-1.8,1.2-2.9,1.6C169.2,107.7,168,108,166.7,108z M167.8,92.5
			c1,0,1.8-0.2,2.4-0.6c0.2-0.2,0.5-0.6,0.7-1.2c0.1-0.6,0.2-1.4,0.2-2.5c0-0.6-0.1-1.2-0.2-1.7s-0.4-1-0.6-1.3
			c-0.2-0.4-0.6-0.7-1.1-1c-0.4-0.2-0.8-0.4-1.3-0.4c-1,0-1.7,0.2-2.2,0.6c-0.6,0.5-0.8,1.7-0.8,3.8c0,0.6,0.1,1.1,0.2,1.6
			c0.1,0.5,0.4,1,0.6,1.3c0.2,0.4,0.6,0.7,1,1C166.9,92.4,167.3,92.5,167.8,92.5z"/>
		<path fill="#999999" d="M180.5,74.8l2,2l-2,2l-2-2L180.5,74.8z M179,97.5v-15h3v15H179z"/>
		<path fill="#999999" d="M187.3,84.2l-1.7-0.1v-0.8l4-3.2h0.6l0.1,2.6h4.1l-0.2,1.3c-0.4,0-0.7,0.1-1.2,0.1s-0.8,0.1-1.2,0.1
			c-0.5,0-1,0.1-1.4,0.1V94c0,0.6,0.1,1,0.2,1.3c0.2,0.4,0.6,0.5,1.3,0.5c0.4,0,0.7,0,1.3,0c0.5,0,1,0,1.3-0.1v1.1
			c-0.2,0.1-0.5,0.2-0.8,0.4c-0.4,0.1-0.7,0.2-1.1,0.4c-0.4,0.1-0.8,0.2-1.2,0.2c-0.4,0.1-0.8,0.1-1.1,0.1c-0.4,0-0.6,0-1-0.1
			s-0.6-0.2-1-0.5c-0.2-0.2-0.5-0.5-0.7-1c-0.1-0.4-0.2-1-0.2-1.6V84.1C187.4,84.2,187.3,84.2,187.3,84.2z"/>
		<path fill="#999999" d="M209,96c0.4,0,1-0.1,1.6-0.2v1c-0.5,0.2-1,0.5-1.6,0.7s-1.1,0.4-1.8,0.4c-0.4,0-0.6,0-0.8-0.1
			s-0.5-0.2-0.6-0.5c-0.1-0.2-0.2-0.4-0.4-0.6c-0.1-0.2-0.2-0.5-0.2-0.6c-0.4,0.2-0.7,0.5-1.1,0.7c-0.4,0.2-0.7,0.5-1.1,0.6
			c-0.4,0.2-0.8,0.4-1.2,0.5c-0.5,0.1-1,0.1-1.4,0.1c-1.2,0-2.2-0.4-2.9-1c-0.7-0.7-1.1-1.7-1.1-3.1c0-0.7,0.1-1.3,0.4-1.9
			c0.2-0.6,0.6-1,1-1.3c0.5-0.4,1.1-0.6,1.8-0.8s1.7-0.2,2.8-0.4l2.6-0.1v-2.8c0-0.8-0.1-1.4-0.5-1.8c-0.4-0.4-0.8-0.6-1.7-0.6
			c-0.6,0-1.3,0.1-2,0.4c-0.8,0.2-1.6,0.5-2.4,0.8l-0.5-1.4c0.5-0.2,1-0.4,1.4-0.6s1.1-0.4,1.6-0.5s1.1-0.2,1.7-0.4
			c0.6-0.1,1.1-0.1,1.7-0.1c0.6,0,1.1,0.1,1.6,0.2c0.5,0.1,0.8,0.4,1.2,0.7c0.4,0.4,0.6,0.7,0.7,1.2c0.1,0.5,0.2,1.2,0.2,1.9v7.2
			C207.8,95.1,208.3,96,209,96z M205,94.8c0-0.1,0-0.5,0-1.2s0-1.8,0-3.2c-1.6,0-2.8,0.1-3.6,0.4c-0.8,0.2-1.3,0.4-1.6,0.6
			c-0.1,0.2-0.4,0.5-0.4,0.8c-0.1,0.4-0.1,0.7-0.1,1.2c0,0.8,0.1,1.4,0.5,1.9c0.2,0.5,0.7,0.7,1.4,0.7s1.3-0.1,1.9-0.2
			C203.8,95.5,204.4,95.1,205,94.8z"/>
		<path fill="#999999" d="M213.5,97.5V72.9l3-0.7v25.3H213.5z"/>
		<path fill="#999999" d="M232.9,87.3l0.6-0.1c0.8-0.1,1.6-0.4,2.3-0.5c0.7-0.2,1.3-0.5,1.8-1s1-1,1.2-1.7c0.4-0.7,0.5-1.7,0.5-2.8
			c0-0.8-0.1-1.6-0.4-2.2c-0.2-0.6-0.6-1.1-1.1-1.6c-0.5-0.4-1.1-0.7-1.7-0.8c-0.7-0.2-1.4-0.2-2.2-0.2c-0.5,0-0.8,0-1.1,0
			c-0.4,0-0.7,0-1.1,0.1v20.9h-3V75.1c1-0.1,1.9-0.1,3-0.1s2.2-0.1,3.2-0.1c1.3,0,2.4,0.1,3.4,0.5c1,0.2,1.8,0.7,2.4,1.2
			c0.6,0.5,1.1,1.2,1.4,1.9s0.5,1.7,0.5,2.6c0,1-0.2,1.9-0.6,2.9c-0.4,0.8-1,1.7-1.7,2.3s-1.7,1.2-2.9,1.6s-2.5,0.6-4.2,0.6H233
			L232.9,87.3z"/>
		<path fill="#999999" d="M252.4,97.8c-2.4,0-4.2-0.6-5.4-1.9c-1.2-1.3-1.9-3.2-1.9-5.8c0-1.2,0.1-2.3,0.5-3.2s0.7-1.8,1.3-2.4
			c0.6-0.7,1.3-1.2,2.3-1.6c1-0.4,1.9-0.6,3.1-0.6s2.3,0.1,3.1,0.5c1,0.4,1.7,0.8,2.3,1.6c0.6,0.7,1.1,1.4,1.3,2.4
			c0.4,1,0.5,2,0.5,3.4c0,1.2-0.1,2.3-0.5,3.2c-0.4,1-0.7,1.8-1.3,2.4c-0.6,0.7-1.3,1.2-2.3,1.6C254.6,97.6,253.6,97.8,252.4,97.8z
			 M248.3,90c0,1.1,0.1,2,0.2,2.8c0.1,0.7,0.4,1.4,0.7,1.9c0.4,0.5,0.7,0.8,1.3,1.1c0.5,0.2,1.1,0.4,1.9,0.4c0.6,0,1.1,0,1.6-0.1
			s0.8-0.4,1.3-0.6c0.5-0.4,0.8-1.1,1.1-1.9c0.1-1,0.2-2,0.2-3.4c0-2.2-0.4-3.7-1-4.7c-0.6-1-1.7-1.4-3.1-1.4c-0.6,0-1.1,0-1.6,0.1
			s-0.8,0.4-1.3,0.6c-0.2,0.1-0.5,0.5-0.6,0.8s-0.2,0.7-0.4,1.2c-0.1,0.5-0.2,1-0.2,1.6C248.3,88.8,248.3,89.4,248.3,90z"/>
		<path fill="#999999" d="M271.8,84.9c-0.4,0-0.7-0.1-1.1-0.1c-0.5,0-0.8,0-1.2,0c-0.2,0-0.5,0-0.7,0.1c-0.2,0-0.4,0.1-0.6,0.2
			s-0.4,0.2-0.5,0.5c-0.1,0.1-0.4,0.4-0.6,0.6v11.4H264V82.5h2.5l0.4,2.4l0,0c0.1-0.2,0.4-0.4,0.5-0.6s0.4-0.5,0.5-0.6
			c0.2-0.2,0.4-0.4,0.6-0.6c0.2-0.1,0.5-0.4,0.6-0.4c0.4-0.1,0.8-0.2,1.3-0.4c0.5,0,1.1-0.1,1.7-0.1L271.8,84.9z"/>
		<path fill="#999999" d="M275.3,84.2l-1.7-0.1v-0.8l4-3.2h0.6l0.1,2.6h4.1l-0.2,1.3c-0.4,0-0.7,0.1-1.2,0.1s-0.8,0.1-1.2,0.1
			c-0.5,0-1,0.1-1.4,0.1V94c0,0.6,0.1,1,0.2,1.3c0.2,0.4,0.6,0.5,1.3,0.5c0.4,0,0.7,0,1.3,0c0.5,0,1,0,1.3-0.1v1.1
			c-0.2,0.1-0.5,0.2-0.8,0.4c-0.4,0.1-0.7,0.2-1.1,0.4c-0.4,0.1-0.8,0.2-1.2,0.2c-0.4,0.1-0.8,0.1-1.1,0.1c-0.4,0-0.6,0-1-0.1
			s-0.6-0.2-1-0.5c-0.2-0.2-0.5-0.5-0.7-1c-0.1-0.4-0.2-1-0.2-1.6V84.1C275.4,84.2,275.3,84.2,275.3,84.2z"/>
		<path fill="#999999" d="M293.5,74.8c-0.4-0.1-0.7-0.1-1.1-0.1s-0.7,0-1.1,0s-0.7,0-1.1,0.1c-0.4,0-0.6,0.1-0.8,0.4
			c-0.1,0.1-0.2,0.4-0.2,0.6c-0.1,0.2-0.1,0.6-0.2,1.1c0,0.5-0.1,1-0.1,1.4c0,0.6,0,1.1,0,1.8v2.5h3.7l-0.2,1.4
			c-0.5,0-0.8,0-1.2,0.1c-0.4,0-0.7,0-1.1,0.1c-0.4,0-0.8,0-1.1,0v13.4h-3V84.2h-1.6c-0.4,0-0.7,0-1.1,0l0.2-1
			c0.4-0.1,0.6-0.1,0.8-0.2c0.2,0,0.5-0.1,0.7-0.1s0.5-0.1,0.6-0.1V80c0-1,0.2-1.8,0.6-2.8c0.4-0.8,0.8-1.7,1.4-2.4s1.3-1.3,2-1.7
			c0.7-0.5,1.6-0.6,2.3-0.6c0.4,0,0.6,0,1,0s0.7,0,1,0.1L293.5,74.8z"/>
		<path fill="#999999" d="M301.9,97.8c-2.4,0-4.2-0.6-5.4-1.9c-1.2-1.3-1.9-3.2-1.9-5.8c0-1.2,0.1-2.3,0.5-3.2s0.7-1.8,1.3-2.4
			c0.6-0.7,1.3-1.2,2.3-1.6c1-0.4,1.9-0.6,3.1-0.6s2.3,0.1,3.1,0.5s1.7,0.8,2.3,1.6c0.6,0.7,1.1,1.4,1.3,2.4c0.4,1,0.5,2,0.5,3.4
			c0,1.2-0.1,2.3-0.5,3.2c-0.4,1-0.7,1.8-1.3,2.4c-0.6,0.7-1.3,1.2-2.3,1.6C304,97.6,303.1,97.8,301.9,97.8z M297.8,90
			c0,1.1,0.1,2,0.2,2.8c0.1,0.7,0.4,1.4,0.7,1.9c0.4,0.5,0.7,0.8,1.3,1.1c0.5,0.2,1.1,0.4,1.9,0.4c0.6,0,1.1,0,1.6-0.1
			s0.8-0.4,1.3-0.6c0.5-0.4,0.8-1.1,1.1-1.9c0.1-1,0.2-2,0.2-3.4c0-2.2-0.4-3.7-1-4.7s-1.7-1.4-3.1-1.4c-0.6,0-1.1,0-1.6,0.1
			s-0.8,0.4-1.3,0.6c-0.2,0.1-0.5,0.5-0.6,0.8c-0.1,0.4-0.2,0.7-0.4,1.2c-0.1,0.5-0.2,1-0.2,1.6C297.8,88.8,297.8,89.4,297.8,90z"/>
		<path fill="#999999" d="M313.6,97.5V72.9l3-0.7v25.3H313.6z"/>
		<path fill="#999999" d="M323.3,74.8l2,2l-2,2l-2-2L323.3,74.8z M321.8,97.5v-15h3v15H321.8z"/>
		<path fill="#999999" d="M336.5,97.8c-2.4,0-4.2-0.6-5.4-1.9c-1.2-1.3-1.9-3.2-1.9-5.8c0-1.2,0.1-2.3,0.5-3.2
			c0.4-1,0.7-1.8,1.3-2.4c0.6-0.7,1.3-1.2,2.3-1.6c1-0.4,1.9-0.6,3.1-0.6s2.3,0.1,3.1,0.5c1,0.4,1.7,0.8,2.3,1.6
			c0.6,0.7,1.1,1.4,1.3,2.4c0.4,1,0.5,2,0.5,3.4c0,1.2-0.1,2.3-0.5,3.2c-0.4,1-0.7,1.8-1.3,2.4c-0.6,0.7-1.3,1.2-2.3,1.6
			C338.8,97.6,337.7,97.8,336.5,97.8z M332.4,90c0,1.1,0.1,2,0.2,2.8c0.1,0.7,0.4,1.4,0.7,1.9c0.4,0.5,0.7,0.8,1.3,1.1
			c0.5,0.2,1.1,0.4,1.9,0.4c0.6,0,1.1,0,1.6-0.1s0.8-0.4,1.3-0.6c0.5-0.4,0.8-1.1,1.1-1.9c0.1-1,0.2-2,0.2-3.4c0-2.2-0.4-3.7-1-4.7
			s-1.7-1.4-3.1-1.4c-0.6,0-1.1,0-1.6,0.1s-0.8,0.4-1.3,0.6c-0.2,0.1-0.5,0.5-0.6,0.8c-0.1,0.4-0.2,0.7-0.4,1.2
			c-0.1,0.5-0.2,1-0.2,1.6C332.4,88.8,332.4,89.4,332.4,90z"/>
	</g>
</g>
</svg>
