<?xml version="1.0" encoding="utf-8"?>
<!-- Generator: Adobe Illustrator 18.0.0, SVG Export Plug-In . SVG Version: 6.00 Build 0)  -->
<!DOCTYPE svg PUBLIC "-//W3C//DTD SVG 1.1//EN" "http://www.w3.org/Graphics/SVG/1.1/DTD/svg11.dtd">
<svg version="1.1" id="Layer_1" xmlns="http://www.w3.org/2000/svg" xmlns:xlink="http://www.w3.org/1999/xlink" x="0px" y="0px"
	 viewBox="0 0 1024 768" enable-background="new 0 0 1024 768" xml:space="preserve">
<linearGradient id="SVGID_1_" gradientUnits="userSpaceOnUse" x1="64" y1="-64" x2="960" y2="832">
	<stop  offset="0" style="stop-color:#414042"/>
	<stop  offset="0.3842" style="stop-color:#000000"/>
	<stop  offset="0.6404" style="stop-color:#414042"/>
	<stop  offset="0.8177" style="stop-color:#000000"/>
</linearGradient>
<rect fill="url(#SVGID_1_)" width="1024" height="768"/>
<g opacity="0.2">
	<g>
		<polygon fill="#EBEBEB" points="390.7,620.5 379.5,490.3 295.4,490.3 307.3,627.7 312.1,683.7 365.7,700.5 494.2,740.5 
			519.1,748.3 519.1,660.6 		"/>
		<polygon fill="#EBEBEB" points="519.1,166.5 519.1,82.7 351.6,82.7 260.3,82.7 267.5,166.5 351.6,166.5 427,166.5 		"/>
		<polygon fill="#FFFFFF" points="672.5,700.5 726.1,683.7 731,627.7 770.1,173.6 777.9,82.7 686.6,82.7 519.1,82.7 519.1,166.5 
			686.6,166.5 647.5,620.5 519.1,660.6 519.1,748.3 544.1,740.5 		"/>
	</g>
	<path fill="#63A814" d="M686.6-112.7H519.1H351.6H47.4l26.1,303.1l39.1,454.1l16.1,186.7L307.5,887L436,927.1l83.1,25.9l83.1-25.9
		L730.7,887l178.9-55.8l16.1-186.7l39.1-454.1l26.1-303.1H686.6z M881.3,183.2l-39.1,454.1L831,768l-125.2,39.1l-128.4,40.1
		l-58.2,18.2v-117l-24.9-7.8l-128.4-40.1l-53.7-16.7l-4.8-56l-11.8-137.4h84.1l11.2,130.2l128.4,40.1V166.5H427h-75.4h-84.1
		l-7.2-83.8h91.3h167.5V-29h167.5h213L881.3,183.2z"/>
	<g>
		<polygon fill="#8ACF17" points="686.6,-29 519.1,-29 519.1,82.7 686.6,82.7 777.9,82.7 770.1,173.6 731,627.7 726.1,683.7 
			672.5,700.5 544.1,740.5 519.1,748.3 519.1,865.3 577.3,847.1 705.7,807.1 831,768 842.2,637.3 881.3,183.2 899.6,-29 		"/>
		<polygon fill="#8ACF17" points="686.6,166.5 519.1,166.5 519.1,660.6 647.5,620.5 		"/>
	</g>
</g>
<g>
	<path fill="#FFFFFF" d="M282.7,576.3c-0.4-9.7-0.7-21.5-0.7-33.2h-0.4c-2.5,10.3-5.9,21.8-9,31.3l-9.8,31.6h-14.3l-8.6-31.3
		c-2.6-9.5-5.4-21-7.3-31.6h-0.2c-0.5,10.9-0.8,23.4-1.4,33.5l-1.4,30.7h-16.9l5.2-80.9h24.4l7.9,27c2.5,9.4,5,19.4,6.8,28.9h0.4
		c2.3-9.4,5-20,7.7-29l8.6-26.9h23.9l4.4,80.9h-17.9L282.7,576.3z"/>
	<path fill="#FFFFFF" d="M349,607.3l-1.1-5.9h-0.4c-3.8,4.7-9.8,7.2-16.8,7.2c-11.9,0-19-8.6-19-18c0-15.2,13.7-22.6,34.4-22.4v-0.8
		c0-3.1-1.7-7.6-10.7-7.6c-6,0-12.4,2-16.2,4.4l-3.4-11.8c4.1-2.3,12.1-5.2,22.8-5.2c19.6,0,25.8,11.5,25.8,25.3V593
		c0,5.6,0.2,11,0.8,14.3H349z M346.8,579.6c-9.6-0.1-17,2.2-17,9.2c0,4.7,3.1,7,7.2,7c4.6,0,8.3-3,9.5-6.7c0.2-1,0.4-2,0.4-3.1
		V579.6z"/>
	<path fill="#FFFFFF" d="M398.4,531.8v16.8h13.1V562h-13.1v21.2c0,7.1,1.7,10.3,7.2,10.3c2.3,0,4.1-0.2,5.4-0.5l0.1,13.8
		c-2.4,1-6.7,1.6-11.9,1.6c-5.9,0-10.8-2-13.7-5c-3.4-3.5-5-9.1-5-17.4v-24h-7.8v-13.4h7.8v-12.7L398.4,531.8z"/>
	<path fill="#FFFFFF" d="M422.1,522.1h18.2v33.5h0.2c1.9-2.5,4.3-4.4,7.2-6c2.6-1.4,6.1-2.3,9.5-2.3c11.6,0,20.5,8,20.5,25.7v34.3
		h-18.2V575c0-7.7-2.6-13-9.5-13c-4.8,0-7.8,3.1-9.1,6.4c-0.5,1.2-0.6,2.8-0.6,4.1v34.8h-18.2V522.1z"/>
	<path fill="#FFFFFF" d="M517.8,588.4c4.9,2.5,12.5,5,20.3,5c8.4,0,12.8-3.5,12.8-8.8c0-5-3.8-7.9-13.6-11.4
		c-13.4-4.7-22.2-12.1-22.2-23.9c0-13.8,11.5-24.4,30.6-24.4c9.1,0,15.8,1.9,20.6,4.1l-4.1,14.8c-3.2-1.6-9-3.8-16.9-3.8
		c-7.9,0-11.8,3.6-11.8,7.8c0,5.2,4.6,7.4,15,11.4c14.3,5.3,21,12.7,21,24.1c0,13.6-10.4,25.1-32.6,25.1c-9.2,0-18.4-2.4-22.9-4.9
		L517.8,588.4z"/>
	<path fill="#FFFFFF" d="M580.9,522.1h18.2v33.5h0.2c1.9-2.5,4.3-4.4,7.2-6c2.6-1.4,6.1-2.3,9.5-2.3c11.6,0,20.5,8,20.5,25.7v34.3
		h-18.2V575c0-7.7-2.6-13-9.5-13c-4.8,0-7.8,3.1-9.1,6.4c-0.5,1.2-0.6,2.8-0.6,4.1v34.8h-18.2V522.1z"/>
	<path fill="#FFFFFF" d="M665.3,583.8c0.6,7.6,8,11.2,16.6,11.2c6.2,0,11.3-0.8,16.2-2.4l2.4,12.4c-6,2.4-13.3,3.6-21.2,3.6
		c-19.9,0-31.3-11.5-31.3-29.9c0-14.9,9.2-31.3,29.6-31.3c19,0,26.2,14.8,26.2,29.3c0,3.1-0.4,5.9-0.6,7.2H665.3z M686.8,571.3
		c0-4.4-1.9-11.9-10.3-11.9c-7.7,0-10.8,7-11.3,11.9H686.8z"/>
	<path fill="#FFFFFF" d="M728.7,583.8c0.6,7.6,8,11.2,16.6,11.2c6.2,0,11.3-0.8,16.2-2.4l2.4,12.4c-6,2.4-13.3,3.6-21.2,3.6
		c-19.9,0-31.3-11.5-31.3-29.9c0-14.9,9.2-31.3,29.6-31.3c19,0,26.2,14.8,26.2,29.3c0,3.1-0.4,5.9-0.6,7.2H728.7z M750.1,571.3
		c0-4.4-1.9-11.9-10.3-11.9c-7.7,0-10.8,7-11.3,11.9H750.1z"/>
	<path fill="#FFFFFF" d="M798.4,531.8v16.8h13.1V562h-13.1v21.2c0,7.1,1.7,10.3,7.2,10.3c2.3,0,4.1-0.2,5.4-0.5l0.1,13.8
		c-2.4,1-6.7,1.6-11.9,1.6c-5.9,0-10.8-2-13.7-5c-3.4-3.5-5-9.1-5-17.4v-24h-7.8v-13.4h7.8v-12.7L798.4,531.8z"/>
</g>
<polygon fill="none" points="379.5,490.3 379.5,490.3 390.7,620.5 "/>
<polygon fill="#7F4B5D" points="379.5,490.3 379.5,490.3 390.7,620.5 519.1,660.6 390.7,620.5 "/>
<g>
	<g>
		<path fill="#FFFFFF" d="M364.5,158.7h18.2v51.1c0,23-11,31.1-28.8,31.1c-4.2,0-9.7-0.7-13.3-1.9l2-14.8c2.5,0.8,5.8,1.4,9.4,1.4
			c7.7,0,12.5-3.5,12.5-16.1V158.7z"/>
		<path fill="#FFFFFF" d="M430.2,239.5l-1.1-5.9h-0.4c-3.8,4.7-9.8,7.2-16.8,7.2c-11.9,0-19-8.6-19-18c0-15.2,13.7-22.6,34.4-22.4
			v-0.8c0-3.1-1.7-7.6-10.7-7.6c-6,0-12.4,2-16.2,4.4l-3.4-11.8c4.1-2.3,12.1-5.2,22.8-5.2c19.6,0,25.8,11.5,25.8,25.3v20.4
			c0,5.6,0.2,11,0.8,14.3H430.2z M428,211.8c-9.6-0.1-17,2.2-17,9.2c0,4.7,3.1,7,7.2,7c4.6,0,8.3-3,9.5-6.7c0.2-1,0.4-2,0.4-3.1
			V211.8z"/>
		<path fill="#FFFFFF" d="M472.3,180.9l7.9,27.2c1.4,4.9,2.5,9.6,3.4,14.3h0.4c1-4.8,1.9-9.2,3.2-14.3l7.6-27.2h19.2l-21.8,58.7
			h-18.2l-21.4-58.7H472.3z"/>
		<path fill="#FFFFFF" d="M554.8,239.5l-1.1-5.9h-0.4c-3.8,4.7-9.8,7.2-16.8,7.2c-11.9,0-19-8.6-19-18c0-15.2,13.7-22.6,34.4-22.4
			v-0.8c0-3.1-1.7-7.6-10.7-7.6c-6,0-12.4,2-16.2,4.4l-3.4-11.8c4.1-2.3,12.1-5.2,22.8-5.2c19.6,0,25.8,11.5,25.8,25.3v20.4
			c0,5.6,0.2,11,0.8,14.3H554.8z M552.7,211.8c-9.6-0.1-17,2.2-17,9.2c0,4.7,3.1,7,7.2,7c4.6,0,8.3-3,9.5-6.7c0.2-1,0.4-2,0.4-3.1
			V211.8z"/>
		<path fill="#FFFFFF" d="M586,220.7c4.9,2.5,12.5,5,20.3,5c8.4,0,12.8-3.5,12.8-8.8c0-5-3.8-7.9-13.6-11.4
			c-13.4-4.7-22.2-12.1-22.2-23.9c0-13.8,11.5-24.4,30.6-24.4c9.1,0,15.8,1.9,20.6,4.1l-4.1,14.8c-3.2-1.6-9-3.8-16.9-3.8
			s-11.8,3.6-11.8,7.8c0,5.2,4.6,7.4,15,11.4c14.3,5.3,21,12.7,21,24.1c0,13.6-10.4,25.1-32.6,25.1c-9.2,0-18.4-2.4-22.9-4.9
			L586,220.7z"/>
		<path fill="#FFFFFF" d="M694.5,238.1c-3.2,1.4-9.4,2.6-16.3,2.6c-19,0-31.1-11.5-31.1-30c0-17.2,11.8-31.2,33.6-31.2
			c4.8,0,10.1,0.8,13.9,2.3l-2.9,13.6c-2.2-1-5.4-1.8-10.2-1.8c-9.6,0-15.8,6.8-15.7,16.4c0,10.8,7.2,16.4,16.1,16.4
			c4.3,0,7.7-0.7,10.4-1.8L694.5,238.1z"/>
		<path fill="#FFFFFF" d="M704.6,200.2c0-8.6-0.2-14.3-0.5-19.3h15.7l0.6,10.8h0.5c3-8.5,10.2-12.1,15.8-12.1c1.7,0,2.5,0,3.8,0.2
			V197c-1.3-0.2-2.9-0.5-4.9-0.5c-6.7,0-11.3,3.6-12.5,9.2c-0.2,1.2-0.4,2.6-0.4,4.1v29.8h-18.2V200.2z"/>
		<path fill="#FFFFFF" d="M769,164.6c0,5-3.8,9.1-9.8,9.1c-5.8,0-9.6-4.1-9.5-9.1c-0.1-5.3,3.7-9.2,9.6-9.2S768.9,159.3,769,164.6z
			 M750.2,239.5v-58.7h18.2v58.7H750.2z"/>
		<path fill="#FFFFFF" d="M783.1,200.5c0-7.7-0.2-14.3-0.5-19.7h15.8l0.8,8.2h0.2c4.3-6.2,11-9.5,19.6-9.5
			c12.8,0,24.4,11.2,24.4,29.9c0,21.4-13.6,31.4-26.6,31.4c-7.1,0-12.6-2.9-15.2-6.7h-0.2v29.2h-18.2V200.5z M801.3,214.3
			c0,1.4,0.1,2.8,0.4,3.8c1.2,4.9,5.4,8.6,10.7,8.6c7.9,0,12.6-6.6,12.6-16.6c0-9.4-4.2-16.4-12.4-16.4c-5.2,0-9.7,3.8-10.9,9.2
			c-0.2,1-0.4,2.2-0.4,3.2V214.3z"/>
		<path fill="#FFFFFF" d="M875.2,164.1v16.8h13.1v13.4h-13.1v21.2c0,7.1,1.7,10.3,7.2,10.3c2.3,0,4.1-0.2,5.4-0.5l0.1,13.8
			c-2.4,1-6.7,1.6-11.9,1.6c-5.9,0-10.8-2-13.7-5c-3.4-3.5-5-9.1-5-17.4v-24h-7.8v-13.4h7.8v-12.7L875.2,164.1z"/>
	</g>
	<g>
		<g>
			<polygon fill="#EBEBEB" points="200.1,247.2 198,222.7 182.2,222.7 184.5,248.5 185.4,259 195.4,262.2 219.5,269.7 224.2,271.1 
				224.2,254.7 			"/>
			<polygon fill="#EBEBEB" points="224.2,161.9 224.2,146.2 192.8,146.2 175.6,146.2 177,161.9 192.8,161.9 206.9,161.9 			"/>
			<polygon fill="#FFFFFF" points="253,262.2 263.1,259 264,248.5 271.3,163.3 272.8,146.2 255.6,146.2 224.2,146.2 224.2,161.9 
				255.6,161.9 248.3,247.2 224.2,254.7 224.2,271.1 228.9,269.7 			"/>
		</g>
		<path fill="#63A814" d="M255.6,109.5h-31.4h-31.4h-57.1l4.9,56.9l7.3,85.2l3,35l33.6,10.5l24.1,7.5l15.6,4.9l15.6-4.9l24.1-7.5
			l33.6-10.5l3-35l7.3-85.2l4.9-56.9H255.6z M292.2,165.1l-7.3,85.2l-2.1,24.5l-23.5,7.3l-24.1,7.5l-10.9,3.4v-22l-4.7-1.5
			l-24.1-7.5l-10.1-3.1l-0.9-10.5l-2.2-25.8H198l2.1,24.4l24.1,7.5v-92.7h-17.3h-14.1H177l-1.4-15.7h17.1h31.4v-21h31.4h40
			L292.2,165.1z"/>
		<g>
			<polygon fill="#8ACF17" points="255.6,125.3 224.2,125.3 224.2,146.2 255.6,146.2 272.8,146.2 271.3,163.3 264,248.5 263.1,259 
				253,262.2 228.9,269.7 224.2,271.1 224.2,293.1 235.1,289.7 259.2,282.2 282.7,274.8 284.8,250.3 292.2,165.1 295.6,125.3 			"/>
			<polygon fill="#8ACF17" points="255.6,161.9 224.2,161.9 224.2,254.7 248.3,247.2 			"/>
		</g>
	</g>
</g>
</svg>
