<?xml version="1.0" encoding="utf-8"?>
<!-- Generator: Adobe Illustrator 18.0.0, SVG Export Plug-In . SVG Version: 6.00 Build 0)  -->
<!DOCTYPE svg PUBLIC "-//W3C//DTD SVG 1.1//EN" "http://www.w3.org/Graphics/SVG/1.1/DTD/svg11.dtd">
<svg version="1.1" id="Layer_1" xmlns="http://www.w3.org/2000/svg" xmlns:xlink="http://www.w3.org/1999/xlink" x="0px" y="0px"
	 viewBox="0 0 1024 768" enable-background="new 0 0 1024 768" xml:space="preserve">
<linearGradient id="SVGID_1_" gradientUnits="userSpaceOnUse" x1="64" y1="-64" x2="960" y2="832">
	<stop  offset="0" style="stop-color:#414042"/>
	<stop  offset="0.3842" style="stop-color:#000000"/>
	<stop  offset="0.6404" style="stop-color:#414042"/>
	<stop  offset="0.8177" style="stop-color:#000000"/>
</linearGradient>
<rect fill="url(#SVGID_1_)" width="1024" height="768"/>
<path fill="#939393" d="M849,668H175c-29.3-29.3-45.7-45.7-75-75V175c29.3-29.3,45.7-45.7,75-75h674c29.3,29.3,45.7,45.7,75,75v418
	C894.7,622.3,878.3,638.7,849,668z"/>
<g>
	<path fill="#FFFFFF" d="M179.8,345.8c4.8-0.8,11.6-1.4,21.2-1.4c9.7,0,16.5,1.8,21.2,5.5c4.4,3.5,7.4,9.2,7.4,16
		s-2.3,12.5-6.4,16.4c-5.3,5-13.3,7.3-22.5,7.3c-2.1,0-3.9-0.1-5.3-0.3v24.8h-15.5V345.8z M195.3,377.3c1.3,0.3,3,0.4,5.2,0.4
		c8.3,0,13.5-4.2,13.5-11.3c0-6.4-4.4-10.2-12.2-10.2c-3.2,0-5.3,0.3-6.5,0.6V377.3z"/>
	<path fill="#FFFFFF" d="M239.5,344.9h15.7V401h27.5v13.2h-43.3V344.9z"/>
	<path fill="#FFFFFF" d="M308.8,396.4l-4.9,17.8h-16.2l21.2-69.3h20.6l21.5,69.3h-16.9l-5.3-17.8H308.8z M326.3,384.7L322,370
		c-1.2-4.1-2.5-9.2-3.5-13.4h-0.2c-1,4.1-2.1,9.4-3.2,13.4l-4.1,14.7H326.3z"/>
	<path fill="#FFFFFF" d="M408.3,412.2c-2.9,1.4-9.4,3-17.8,3c-23.9,0-36.3-14.9-36.3-34.6c0-23.6,16.9-36.8,37.8-36.8
		c8.1,0,14.3,1.6,17.1,3.1l-3.2,12.4c-3.2-1.3-7.6-2.6-13.2-2.6c-12.4,0-22.1,7.5-22.1,22.9c0,13.9,8.2,22.6,22.2,22.6
		c4.7,0,10-1,13-2.3L408.3,412.2z"/>
	<path fill="#FFFFFF" d="M459.8,384.9h-25.5v16.4h28.5v12.8h-44.2v-69.3h42.7v12.8h-27v14.4h25.5V384.9z"/>
	<path fill="#FFFFFF" d="M489.2,344.9v26.6H515v-26.6h15.6v69.3H515v-29h-25.8v29h-15.7v-69.3H489.2z"/>
	<path fill="#FFFFFF" d="M607.7,378.8c0,22.7-13.8,36.5-34,36.5c-20.6,0-32.6-15.5-32.6-35.2c0-20.8,13.3-36.3,33.7-36.3
		C596.1,343.8,607.7,359.7,607.7,378.8z M557.6,379.7c0,13.6,6.4,23.1,16.9,23.1c10.6,0,16.6-10.1,16.6-23.5
		c0-12.4-6-23.1-16.7-23.1C563.8,356.2,557.6,366.3,557.6,379.7z"/>
	<path fill="#FFFFFF" d="M617.9,344.9h15.7V401h27.5v13.2h-43.3V344.9z"/>
	<path fill="#FFFFFF" d="M670.4,345.8c5.8-0.9,13.3-1.4,21.2-1.4c13.2,0,21.7,2.4,28.4,7.4c7.2,5.3,11.7,13.9,11.7,26.1
		c0,13.3-4.8,22.4-11.5,28.1c-7.3,6.1-18.4,8.9-32,8.9c-8.1,0-13.9-0.5-17.8-1V345.8z M686.2,402.3c1.3,0.3,3.5,0.3,5.4,0.3
		c14.2,0.1,23.4-7.7,23.4-24.3c0.1-14.4-8.3-22-21.8-22c-3.5,0-5.8,0.3-7.1,0.6V402.3z"/>
	<path fill="#FFFFFF" d="M783.2,384.9h-25.5v16.4h28.5v12.8H742v-69.3h42.7v12.8h-27v14.4h25.5V384.9z"/>
	<path fill="#FFFFFF" d="M796.8,345.8c5-0.8,12.5-1.4,20.9-1.4c10.3,0,17.5,1.5,22.4,5.4c4.1,3.3,6.4,8.1,6.4,14.5
		c0,8.8-6.3,14.9-12.2,17.1v0.3c4.8,2,7.5,6.6,9.2,12.9c2.2,7.8,4.3,16.9,5.7,19.5h-16c-1.1-2-2.8-7.6-4.8-16.1
		c-1.8-8.6-4.8-11-11.2-11.1h-4.7v27.2h-15.5V345.8z M812.3,375.6h6.2c7.8,0,12.4-3.9,12.4-10c0-6.4-4.3-9.6-11.5-9.7
		c-3.8,0-6,0.3-7.1,0.5V375.6z"/>
</g>
</svg>
