<?xml version="1.0" encoding="utf-8"?>
<!-- Generator: Adobe Illustrator 18.0.0, SVG Export Plug-In . SVG Version: 6.00 Build 0)  -->
<!DOCTYPE svg PUBLIC "-//W3C//DTD SVG 1.1//EN" "http://www.w3.org/Graphics/SVG/1.1/DTD/svg11.dtd">
<svg version="1.1" id="Layer_1" xmlns="http://www.w3.org/2000/svg" xmlns:xlink="http://www.w3.org/1999/xlink" x="0px" y="0px"
	 viewBox="0 0 1024 768" enable-background="new 0 0 1024 768" xml:space="preserve">
<linearGradient id="SVGID_1_" gradientUnits="userSpaceOnUse" x1="64" y1="-64" x2="960" y2="832">
	<stop  offset="0" style="stop-color:#414042"/>
	<stop  offset="0.3842" style="stop-color:#000000"/>
	<stop  offset="0.6404" style="stop-color:#414042"/>
	<stop  offset="0.8177" style="stop-color:#000000"/>
</linearGradient>
<rect fill="url(#SVGID_1_)" width="1024" height="768"/>
<g opacity="0.2">
	<path fill="#3775A8" d="M779.1,109.8c0-21,0-42.1,0-63.1c0-10.5,0.1-21,0.1-31.5c0-10.4,0.4-20.9,0-31.4
		c-0.4-10.2-1.6-20.4-4.4-30.2c-2.6-9.1-6.6-17.7-11.7-25.7c-8.8-13.9-20.5-25.8-33.9-35.5c-30.5-22.2-67.8-34.7-104.6-41.3
		c-14.4-2.6-28.9-4.3-43.4-5.6c-7.4-0.7-14.9-1.3-22.3-2c-7.4-0.6-14.8-1.1-22.1-2.4c-20.6,0-41.1,0-61.7,0
		c-20.8,1.5-41.6,2.8-62.3,5.4c-20.3,2.6-40.5,6.3-60.2,11.8c-37,10.4-76.5,27.5-98.1,61.2c-5.2,8.1-9,17.2-11,26.6
		c-2,9.8-1.7,19.5-1.5,29.4c0.3,20.8,0.4,41.6,0.3,62.4c0,17.3,0,34.7,0,52c89.7,0,179.2,0,269.1,0h0c0,13,0,25.4,0,38.3h0v0
		c-10.3,0.5-20.6,0.2-31,0.2c-10.5,0-21.1,0-31.6,0c-21.1,0-42.2,0-63.2,0.1c-41.8,0-83.6,0.1-125.4,0c-21,0-42.1-0.1-63.1-0.1
		c-20.6-0.1-41.3-0.3-61.9-0.2c-18.9,0.1-37.7,2.6-55.8,8.5c-18,5.8-34.7,15.8-49,28.1c-30,25.9-48.8,62.5-59.9,100
		c-4.8,16.4-8.2,33.2-10.6,50.1c-1.2,8.5-2.1,17-2.8,25.5c-0.7,8.4-0.8,17.1-2.5,25.4c0,18.4,0,36.8,0,55.2
		c1.7,20.6,3.1,41.1,6.2,61.5c3,20.1,7.3,40.1,13.6,59.5c11.7,36,30,71.1,59.7,95.4c14.3,11.7,30.9,21,48.8,26
		c9.1,2.5,18.6,4,28.1,4.2c10.2,0.2,20.5,0,30.8-0.1c21.6,0,43.2,0.1,64.9,0.1c0-41.9-0.2-83.9,0-125.8c0.1-19.1,1.5-38.1,5.8-56.8
		c3.5-15.3,9-30.1,16.6-43.9c15.5-27.9,39.5-49.6,67.4-64.7c31-16.8,65.7-24.3,100.7-24.4c39.1-0.2,78.2-0.2,117.3-0.2
		c39.5,0,79,0.1,118.5,0c32.9-0.1,68.6,1.8,97.7-16.4c13.3-8.3,23.6-20.3,31.4-33.9c8.8-15.3,14.4-32.7,16.1-50.3
		c1-10.4,1-20.8,1.1-31.3c0-10.5,0-21,0-31.5c0-21,0-42.1,0-63.1C779.1,120.3,779.1,115.1,779.1,109.8
		C779.1,70.5,779.2,149.1,779.1,109.8z M392.5,9.2c-12.6,12.5-31.4,17.2-48.4,12c-16-4.9-28.7-18-32.8-34.2
		c-4.2-16.3,0.6-35,13-46.6c12.6-11.8,30.3-16.7,47.1-12c17.2,4.8,30.7,19.2,34.4,36.7C409.1-19.1,404-2.2,392.5,9.2z"/>
	<path fill="#FFDB4D" d="M1069.3,346.8c-1.7-20.6-3.1-41.1-6.2-61.5c-3-20.3-7.4-40.5-13.8-60c-12.1-37-31.3-73-62.5-97.3
		c-14.7-11.4-31.5-20-49.5-24.5c-9.2-2.3-18.9-3.3-28.4-3.3c-10.3,0.1-20.7,0.1-31,0.1c-20.2,0-40.4-0.1-60.6-0.1
		c0,41.7,0.2,83.5,0,125.2c-0.1,19.4-1.5,38.6-6.7,57.5c-4.8,17.5-12.4,34.1-22.7,49c-9.8,14.2-22.1,26.6-36.7,35.8
		c-15.9,10-33.9,16.2-52.4,19.2c-20.6,3.4-41.4,3.1-62.3,3.2c-21,0-42,0.1-62.9,0.1c-41.9,0-83.7,0-125.6,0c-10.5,0-21.1,0-31.6,0.1
		c-10.4,0-20.8-0.2-31.2,0.4c-19.7,1.2-39.2,5.4-57.4,13.1c-16.5,7.1-32.3,16.9-45.2,29.5c-11,10.8-19.8,23.8-25.8,38
		c-6.6,15.5-9.9,32.2-11.2,49c-0.8,10.4-0.7,20.8-0.7,31.3c0,10.5,0,20.9,0,31.4c0,41.8,0.1,83.7,0,125.5c0,20.9-0.1,41.8-0.2,62.7
		c-0.1,10.3,0.1,20.5,1.7,30.6c1.5,9.5,4.3,18.8,8.4,27.5c16.4,34.1,49.3,56,83.2,70.1c18.2,7.5,37.2,13,56.5,16.7
		c20.3,3.9,40.8,5.9,61.4,7.7c10.4,0.9,20.9,1.4,31.2,3.2c20.6,0,41.1,0,61.7,0c20.8-1.5,41.6-2.8,62.3-5.4
		c20.1-2.5,40.1-6.2,59.6-11.7c35.8-10,73.1-25.9,95.6-56.9c5.6-7.8,10-16.5,12.7-25.7c2.7-9.4,3.1-18.8,3-28.5
		c-0.4-20.9-0.5-41.8-0.4-62.7c0-19.3,0-38.7,0-58c-89.7,0-179.2,0-269.1,0h0c0-13,0-25.4,0-38.3h0c0,0,0,0,0,0
		c10.3-0.5,20.6-0.2,30.9-0.2c10.5,0,21,0,31.5,0c21,0,42,0,63-0.1c41.7,0,83.5-0.1,125.2,0c21,0,42.1,0.1,63.1,0.1
		c20.8,0.1,41.7,0.4,62.5,0.2c18.9-0.1,37.7-2.6,55.8-8.5c17.7-5.8,34.3-15.6,48.5-27.6c30-25.6,48.9-62,60.1-99.3
		c5-16.7,8.5-33.8,11-51.1c1.2-8.4,2.1-16.9,2.8-25.4c0.7-8.6,0.8-17.3,2.6-25.7C1069.3,383.6,1069.3,365.2,1069.3,346.8
		C1068.9,342,1069.3,365.2,1069.3,346.8z M631.5,758.8c12.4-12.4,31.1-17.1,48-12.1c18.1,5.4,31.8,21.2,34.3,39.9
		c0.3,2.2,0.4,4.4,0.4,6.6l0,0v0c0,16.3-8.6,31.8-22.3,40.6c-15.1,9.7-34.9,10.2-50.5,1.2c-13.3-7.6-22.4-21.5-24-36.7
		C615.9,783.8,621.2,769.1,631.5,758.8z"/>
</g>
<g>
	<g>
		<path fill="#3775A8" d="M346.1,160.2c0-3.9,0-7.7,0-11.6c0-1.9,0-3.9,0-5.8c0-1.9,0.1-3.9,0-5.8c-0.1-1.9-0.3-3.7-0.8-5.6
			c-0.5-1.7-1.2-3.3-2.2-4.7c-1.6-2.6-3.8-4.8-6.2-6.5c-5.6-4.1-12.5-6.4-19.3-7.6c-2.6-0.5-5.3-0.8-8-1c-1.4-0.1-2.7-0.2-4.1-0.4
			c-1.4-0.1-2.7-0.2-4.1-0.4c-3.8,0-7.6,0-11.4,0c-3.8,0.3-7.7,0.5-11.5,1c-3.7,0.5-7.5,1.2-11.1,2.2c-6.8,1.9-14.1,5.1-18.1,11.3
			c-1,1.5-1.7,3.2-2,4.9c-0.4,1.8-0.3,3.6-0.3,5.4c0.1,3.8,0.1,7.7,0.1,11.5c0,3.2,0,6.4,0,9.6c16.5,0,33,0,49.6,0h0
			c0,2.4,0,4.7,0,7.1h0v0c-1.9,0.1-3.8,0-5.7,0c-1.9,0-3.9,0-5.8,0c-3.9,0-7.8,0-11.6,0c-7.7,0-15.4,0-23.1,0c-3.9,0-7.7,0-11.6,0
			c-3.8,0-7.6-0.1-11.4,0c-3.5,0-7,0.5-10.3,1.6c-3.3,1.1-6.4,2.9-9,5.2c-5.5,4.8-9,11.5-11,18.4c-0.9,3-1.5,6.1-2,9.2
			c-0.2,1.6-0.4,3.1-0.5,4.7c-0.1,1.6-0.2,3.1-0.5,4.7c0,3.4,0,6.8,0,10.2c0.3,3.8,0.6,7.6,1.1,11.3c0.6,3.7,1.3,7.4,2.5,11
			c2.2,6.6,5.5,13.1,11,17.6c2.6,2.2,5.7,3.9,9,4.8c1.7,0.5,3.4,0.7,5.2,0.8c1.9,0,3.8,0,5.7,0c4,0,8,0,11.9,0c0-7.7,0-15.5,0-23.2
			c0-3.5,0.3-7,1.1-10.5c0.6-2.8,1.7-5.6,3.1-8.1c2.9-5.1,7.3-9.1,12.4-11.9c5.7-3.1,12.1-4.5,18.6-4.5c7.2,0,14.4,0,21.6,0
			c7.3,0,14.6,0,21.8,0c6.1,0,12.6,0.3,18-3c2.5-1.5,4.3-3.7,5.8-6.2c1.6-2.8,2.7-6,3-9.3c0.2-1.9,0.2-3.8,0.2-5.8
			c0-1.9,0-3.9,0-5.8c0-3.9,0-7.7,0-11.6C346.1,162.1,346.1,161.2,346.1,160.2C346.1,152.9,346.1,167.4,346.1,160.2z M274.9,141.6
			c-2.3,2.3-5.8,3.2-8.9,2.2c-2.9-0.9-5.3-3.3-6.1-6.3c-0.8-3,0.1-6.4,2.4-8.6c2.3-2.2,5.6-3.1,8.7-2.2c3.2,0.9,5.7,3.5,6.3,6.8
			C278,136.4,277,139.5,274.9,141.6z"/>
		<path fill="#FFDB4D" d="M399.6,203.8c-0.3-3.8-0.6-7.6-1.1-11.3c-0.6-3.7-1.4-7.5-2.5-11.1c-2.2-6.8-5.8-13.5-11.5-17.9
			c-2.7-2.1-5.8-3.7-9.1-4.5c-1.7-0.4-3.5-0.6-5.2-0.6c-1.9,0-3.8,0-5.7,0c-3.7,0-7.4,0-11.2,0c0,7.7,0,15.4,0,23.1
			c0,3.6-0.3,7.1-1.2,10.6c-0.9,3.2-2.3,6.3-4.2,9c-1.8,2.6-4.1,4.9-6.8,6.6c-2.9,1.9-6.2,3-9.7,3.5c-3.8,0.6-7.6,0.6-11.5,0.6
			c-3.9,0-7.7,0-11.6,0c-7.7,0-15.4,0-23.1,0c-1.9,0-3.9,0-5.8,0c-1.9,0-3.8,0-5.8,0.1c-3.6,0.2-7.2,1-10.6,2.4
			c-3,1.3-5.9,3.1-8.3,5.4c-2,2-3.6,4.4-4.8,7c-1.2,2.9-1.8,5.9-2.1,9c-0.1,1.9-0.1,3.8-0.1,5.8c0,1.9,0,3.9,0,5.8
			c0,7.7,0,15.4,0,23.1c0,3.9,0,7.7,0,11.6c0,1.9,0,3.8,0.3,5.6c0.3,1.7,0.8,3.5,1.6,5.1c3,6.3,9.1,10.3,15.3,12.9
			c3.4,1.4,6.9,2.4,10.4,3.1c3.7,0.7,7.5,1.1,11.3,1.4c1.9,0.2,3.9,0.3,5.7,0.6c3.8,0,7.6,0,11.4,0c3.8-0.3,7.7-0.5,11.5-1
			c3.7-0.5,7.4-1.1,11-2.1c6.6-1.8,13.5-4.8,17.6-10.5c1-1.4,1.8-3,2.3-4.7c0.5-1.7,0.6-3.5,0.5-5.2c-0.1-3.8-0.1-7.7-0.1-11.5
			c0-3.6,0-7.1,0-10.7c-16.5,0-33,0-49.6,0h0c0-2.4,0-4.7,0-7.1h0c0,0,0,0,0,0c1.9-0.1,3.8,0,5.7,0c1.9,0,3.9,0,5.8,0
			c3.9,0,7.7,0,11.6,0c7.7,0,15.4,0,23.1,0c3.9,0,7.8,0,11.6,0c3.8,0,7.7,0.1,11.5,0c3.5,0,6.9-0.5,10.3-1.6
			c3.3-1.1,6.3-2.9,8.9-5.1c5.5-4.7,9-11.4,11.1-18.3c0.9-3.1,1.6-6.2,2-9.4c0.2-1.6,0.4-3.1,0.5-4.7c0.1-1.6,0.2-3.2,0.5-4.7
			C399.6,210.6,399.6,207.2,399.6,203.8C399.5,203,399.6,207.2,399.6,203.8z M318.9,279.7c2.3-2.3,5.7-3.2,8.8-2.2
			c3.3,1,5.9,3.9,6.3,7.4c0.1,0.4,0.1,0.8,0.1,1.2l0,0v0c0,3-1.6,5.9-4.1,7.5c-2.8,1.8-6.4,1.9-9.3,0.2c-2.4-1.4-4.1-4-4.4-6.8
			C316.1,284.3,317,281.6,318.9,279.7z"/>
	</g>
	<g>
		<path fill="#FFFFFF" d="M457.6,160.2c5.6-1,13.6-1.7,24.7-1.7c11.3,0,19.3,2.2,24.7,6.5c5.2,4.1,8.6,10.8,8.6,18.7
			c0,7.9-2.6,14.6-7.4,19.2c-6.2,5.9-15.5,8.5-26.3,8.5c-2.4,0-4.6-0.1-6.2-0.4V240h-18.1V160.2z M475.7,197
			c1.6,0.4,3.5,0.5,6.1,0.5c9.7,0,15.7-4.9,15.7-13.2c0-7.4-5.2-11.9-14.3-11.9c-3.7,0-6.2,0.4-7.6,0.7V197z"/>
		<path fill="#FFFFFF" d="M541.4,181.4l8.8,28.8c1,3.5,2.2,7.8,2.9,10.9h0.4c0.8-3.1,1.8-7.6,2.6-10.9l7.2-28.8h19.6L569.1,220
			c-8.4,23.3-14,32.6-20.6,38.5c-6.4,5.5-13.1,7.4-17.6,8l-3.8-15.5c2.3-0.4,5.2-1.4,7.9-3.1c2.8-1.4,5.8-4.3,7.6-7.3
			c0.6-0.8,1-1.8,1-2.6c0-0.6-0.1-1.6-0.8-3l-21.5-53.6H541.4z"/>
		<path fill="#FFFFFF" d="M610.9,164.6v16.8h13.1v13.4h-13.1V216c0,7.1,1.7,10.3,7.2,10.3c2.3,0,4.1-0.2,5.4-0.5l0.1,13.8
			c-2.4,1-6.7,1.6-11.9,1.6c-5.9,0-10.8-2-13.7-5c-3.4-3.5-5-9.1-5-17.4v-24h-7.8v-13.4h7.8v-12.7L610.9,164.6z"/>
		<path fill="#FFFFFF" d="M634.5,154.8h18.2v33.5h0.2c1.9-2.5,4.3-4.4,7.2-6c2.6-1.4,6.1-2.3,9.5-2.3c11.6,0,20.5,8,20.5,25.7V240
			h-18.2v-32.3c0-7.7-2.6-13-9.5-13c-4.8,0-7.8,3.1-9.1,6.4c-0.5,1.2-0.6,2.8-0.6,4.1V240h-18.2V154.8z"/>
		<path fill="#FFFFFF" d="M762.8,210c0,21.5-15.2,31.3-31,31.3c-17.2,0-30.4-11.3-30.4-30.2c0-19,12.5-31.1,31.3-31.1
			C750.8,180,762.8,192.4,762.8,210z M720.3,210.6c0,10.1,4.2,17.6,12,17.6c7.1,0,11.6-7.1,11.6-17.6c0-8.8-3.4-17.6-11.6-17.6
			C723.5,193,720.3,202,720.3,210.6z"/>
		<path fill="#FFFFFF" d="M774.1,200.1c0-7.3-0.2-13.6-0.5-18.7h15.8l0.8,8h0.4c2.4-3.7,8.4-9.4,18.1-9.4c12,0,21,7.9,21,25.2V240
			h-18.2v-32.5c0-7.6-2.6-12.7-9.2-12.7c-5,0-8,3.5-9.2,6.8c-0.5,1.1-0.7,2.9-0.7,4.6V240h-18.2V200.1z"/>
	</g>
</g>
<g>
	<path fill="#FFFFFF" d="M246.4,526.3c5.9-1,14.6-1.7,24.4-1.7c12,0,20.4,1.8,26.2,6.4c4.8,3.8,7.4,9.5,7.4,16.9
		c0,10.3-7.3,17.4-14.3,19.9v0.4c5.6,2.3,8.8,7.7,10.8,15.1c2.5,9.1,5,19.7,6.6,22.8h-18.7c-1.3-2.3-3.2-8.9-5.6-18.8
		c-2.2-10.1-5.6-12.8-13.1-13h-5.5v31.8h-18.1V526.3z M264.6,561.1h7.2c9.1,0,14.5-4.6,14.5-11.6c0-7.4-5-11.2-13.4-11.3
		c-4.4,0-7,0.4-8.3,0.6V561.1z"/>
	<path fill="#FFFFFF" d="M317.6,526.3c5.6-1,13.6-1.7,24.7-1.7c11.3,0,19.3,2.2,24.7,6.5c5.2,4.1,8.6,10.8,8.6,18.7
		c0,7.9-2.6,14.6-7.4,19.2c-6.2,5.9-15.5,8.5-26.3,8.5c-2.4,0-4.6-0.1-6.2-0.4v28.9h-18.1V526.3z M335.7,563
		c1.6,0.4,3.5,0.5,6.1,0.5c9.7,0,15.7-4.9,15.7-13.2c0-7.4-5.2-11.9-14.3-11.9c-3.7,0-6.2,0.4-7.6,0.7V563z"/>
	<path fill="#FFFFFF" d="M387.9,587.2c4.9,2.5,12.5,5,20.3,5c8.4,0,12.8-3.5,12.8-8.8c0-5-3.8-7.9-13.6-11.4
		c-13.4-4.7-22.2-12.1-22.2-23.9c0-13.8,11.5-24.4,30.6-24.4c9.1,0,15.8,1.9,20.6,4.1l-4.1,14.8c-3.2-1.6-9-3.8-16.9-3.8
		c-7.9,0-11.8,3.6-11.8,7.8c0,5.2,4.6,7.4,15,11.4c14.3,5.3,21,12.7,21,24.1c0,13.6-10.4,25.1-32.6,25.1c-9.2,0-18.4-2.4-22.9-4.9
		L387.9,587.2z"/>
	<path fill="#FFFFFF" d="M543.9,602.4c-5.6,1.9-16.3,4.6-27,4.6c-14.8,0-25.4-3.7-32.9-10.9c-7.4-7-11.5-17.5-11.4-29.4
		c0.1-26.9,19.7-42.2,46.2-42.2c10.4,0,18.5,2,22.4,4l-3.8,14.6c-4.4-1.9-10-3.5-18.8-3.5c-15.2,0-26.8,8.6-26.8,26.2
		c0,16.7,10.4,26.5,25.4,26.5c4.2,0,7.6-0.5,9-1.2V574h-12.5v-14.3h30.1V602.4z"/>
	<path fill="#FFFFFF" d="M591.9,606.1l-1.1-5.9h-0.4c-3.8,4.7-9.8,7.2-16.8,7.2c-11.9,0-19-8.6-19-18c0-15.2,13.7-22.6,34.4-22.4
		v-0.8c0-3.1-1.7-7.6-10.7-7.6c-6,0-12.4,2-16.2,4.4l-3.4-11.8c4.1-2.3,12.1-5.2,22.8-5.2c19.6,0,25.8,11.5,25.8,25.3v20.4
		c0,5.6,0.2,11,0.8,14.3H591.9z M589.8,578.4c-9.6-0.1-17,2.2-17,9.2c0,4.7,3.1,7,7.2,7c4.6,0,8.3-3,9.5-6.7c0.2-1,0.4-2,0.4-3.1
		V578.4z"/>
	<path fill="#FFFFFF" d="M621.9,566.1c0-7.3-0.2-13.6-0.5-18.7h15.4l0.8,7.9h0.4c2.5-3.7,7.7-9.2,17.8-9.2c7.6,0,13.6,3.8,16.1,10
		h0.2c2.2-3,4.8-5.4,7.6-7.1c3.2-1.9,6.8-2.9,11.2-2.9c11.3,0,19.8,7.9,19.8,25.4v34.6h-17.8v-31.9c0-8.5-2.8-13.4-8.6-13.4
		c-4.2,0-7.2,2.9-8.4,6.4c-0.5,1.3-0.7,3.2-0.7,4.7v34.3h-17.8v-32.9c0-7.4-2.6-12.5-8.4-12.5c-4.7,0-7.4,3.6-8.5,6.6
		c-0.6,1.4-0.7,3.1-0.7,4.6v34.2h-17.8V566.1z"/>
	<path fill="#FFFFFF" d="M739.2,582.6c0.6,7.6,8,11.2,16.6,11.2c6.2,0,11.3-0.8,16.2-2.4l2.4,12.4c-6,2.4-13.3,3.6-21.2,3.6
		c-19.9,0-31.3-11.5-31.3-29.9c0-14.9,9.2-31.3,29.6-31.3c19,0,26.2,14.8,26.2,29.3c0,3.1-0.4,5.9-0.6,7.2H739.2z M760.6,570.1
		c0-4.4-1.9-11.9-10.3-11.9c-7.7,0-10.8,7-11.3,11.9H760.6z"/>
</g>
</svg>
